%TF.GenerationSoftware,KiCad,Pcbnew,(5.1.6)-1*%
%TF.CreationDate,2020-08-06T11:36:23+02:00*%
%TF.ProjectId,Sintaksa-stm32g031-BMSmodul,53696e74-616b-4736-912d-73746d333267,rev?*%
%TF.SameCoordinates,Original*%
%TF.FileFunction,Legend,Top*%
%TF.FilePolarity,Positive*%
%FSLAX46Y46*%
G04 Gerber Fmt 4.6, Leading zero omitted, Abs format (unit mm)*
G04 Created by KiCad (PCBNEW (5.1.6)-1) date 2020-08-06 11:36:23*
%MOMM*%
%LPD*%
G01*
G04 APERTURE LIST*
%ADD10C,0.150000*%
%ADD11C,0.200000*%
%ADD12C,0.250000*%
%ADD13C,0.175000*%
%ADD14C,0.300000*%
%ADD15C,0.120000*%
%ADD16C,0.050000*%
G04 APERTURE END LIST*
D10*
X174900000Y-96400000D02*
X174300000Y-96400000D01*
X174900000Y-96350000D02*
X174900000Y-96400000D01*
X174894000Y-95808000D02*
X174900000Y-96350000D01*
D11*
X74366380Y-66063523D02*
X73366380Y-66063523D01*
X73366380Y-65682571D01*
X73414000Y-65587333D01*
X73461619Y-65539714D01*
X73556857Y-65492095D01*
X73699714Y-65492095D01*
X73794952Y-65539714D01*
X73842571Y-65587333D01*
X73890190Y-65682571D01*
X73890190Y-66063523D01*
X73366380Y-64873047D02*
X73366380Y-64682571D01*
X73414000Y-64587333D01*
X73509238Y-64492095D01*
X73699714Y-64444476D01*
X74033047Y-64444476D01*
X74223523Y-64492095D01*
X74318761Y-64587333D01*
X74366380Y-64682571D01*
X74366380Y-64873047D01*
X74318761Y-64968285D01*
X74223523Y-65063523D01*
X74033047Y-65111142D01*
X73699714Y-65111142D01*
X73509238Y-65063523D01*
X73414000Y-64968285D01*
X73366380Y-64873047D01*
X73366380Y-64111142D02*
X74366380Y-63873047D01*
X73652095Y-63682571D01*
X74366380Y-63492095D01*
X73366380Y-63254000D01*
X73842571Y-62873047D02*
X73842571Y-62539714D01*
X74366380Y-62396857D02*
X74366380Y-62873047D01*
X73366380Y-62873047D01*
X73366380Y-62396857D01*
X74366380Y-61396857D02*
X73890190Y-61730190D01*
X74366380Y-61968285D02*
X73366380Y-61968285D01*
X73366380Y-61587333D01*
X73414000Y-61492095D01*
X73461619Y-61444476D01*
X73556857Y-61396857D01*
X73699714Y-61396857D01*
X73794952Y-61444476D01*
X73842571Y-61492095D01*
X73890190Y-61587333D01*
X73890190Y-61968285D01*
X99210761Y-93662190D02*
X99258380Y-93519333D01*
X99258380Y-93281238D01*
X99210761Y-93186000D01*
X99163142Y-93138380D01*
X99067904Y-93090761D01*
X98972666Y-93090761D01*
X98877428Y-93138380D01*
X98829809Y-93186000D01*
X98782190Y-93281238D01*
X98734571Y-93471714D01*
X98686952Y-93566952D01*
X98639333Y-93614571D01*
X98544095Y-93662190D01*
X98448857Y-93662190D01*
X98353619Y-93614571D01*
X98306000Y-93566952D01*
X98258380Y-93471714D01*
X98258380Y-93233619D01*
X98306000Y-93090761D01*
X98258380Y-92805047D02*
X98258380Y-92233619D01*
X99258380Y-92519333D02*
X98258380Y-92519333D01*
X98972666Y-91947904D02*
X98972666Y-91471714D01*
X99258380Y-92043142D02*
X98258380Y-91709809D01*
X99258380Y-91376476D01*
X98258380Y-91186000D02*
X98258380Y-90614571D01*
X99258380Y-90900285D02*
X98258380Y-90900285D01*
X98258380Y-90281238D02*
X99067904Y-90281238D01*
X99163142Y-90233619D01*
X99210761Y-90186000D01*
X99258380Y-90090761D01*
X99258380Y-89900285D01*
X99210761Y-89805047D01*
X99163142Y-89757428D01*
X99067904Y-89709809D01*
X98258380Y-89709809D01*
X99210761Y-89281238D02*
X99258380Y-89138380D01*
X99258380Y-88900285D01*
X99210761Y-88805047D01*
X99163142Y-88757428D01*
X99067904Y-88709809D01*
X98972666Y-88709809D01*
X98877428Y-88757428D01*
X98829809Y-88805047D01*
X98782190Y-88900285D01*
X98734571Y-89090761D01*
X98686952Y-89186000D01*
X98639333Y-89233619D01*
X98544095Y-89281238D01*
X98448857Y-89281238D01*
X98353619Y-89233619D01*
X98306000Y-89186000D01*
X98258380Y-89090761D01*
X98258380Y-88852666D01*
X98306000Y-88709809D01*
D12*
X118559047Y-119444761D02*
X118654285Y-119492380D01*
X118844761Y-119492380D01*
X118940000Y-119444761D01*
X118987619Y-119349523D01*
X118987619Y-119301904D01*
X118940000Y-119206666D01*
X118844761Y-119159047D01*
X118701904Y-119159047D01*
X118606666Y-119111428D01*
X118559047Y-119016190D01*
X118559047Y-118968571D01*
X118606666Y-118873333D01*
X118701904Y-118825714D01*
X118844761Y-118825714D01*
X118940000Y-118873333D01*
X119273333Y-118825714D02*
X119654285Y-118825714D01*
X119416190Y-118492380D02*
X119416190Y-119349523D01*
X119463809Y-119444761D01*
X119559047Y-119492380D01*
X119654285Y-119492380D01*
X119987619Y-119492380D02*
X119987619Y-118825714D01*
X119987619Y-118920952D02*
X120035238Y-118873333D01*
X120130476Y-118825714D01*
X120273333Y-118825714D01*
X120368571Y-118873333D01*
X120416190Y-118968571D01*
X120416190Y-119492380D01*
X120416190Y-118968571D02*
X120463809Y-118873333D01*
X120559047Y-118825714D01*
X120701904Y-118825714D01*
X120797142Y-118873333D01*
X120844761Y-118968571D01*
X120844761Y-119492380D01*
X121225714Y-118492380D02*
X121844761Y-118492380D01*
X121511428Y-118873333D01*
X121654285Y-118873333D01*
X121749523Y-118920952D01*
X121797142Y-118968571D01*
X121844761Y-119063809D01*
X121844761Y-119301904D01*
X121797142Y-119397142D01*
X121749523Y-119444761D01*
X121654285Y-119492380D01*
X121368571Y-119492380D01*
X121273333Y-119444761D01*
X121225714Y-119397142D01*
X122225714Y-118587619D02*
X122273333Y-118540000D01*
X122368571Y-118492380D01*
X122606666Y-118492380D01*
X122701904Y-118540000D01*
X122749523Y-118587619D01*
X122797142Y-118682857D01*
X122797142Y-118778095D01*
X122749523Y-118920952D01*
X122178095Y-119492380D01*
X122797142Y-119492380D01*
X123559047Y-118968571D02*
X123701904Y-119016190D01*
X123749523Y-119063809D01*
X123797142Y-119159047D01*
X123797142Y-119301904D01*
X123749523Y-119397142D01*
X123701904Y-119444761D01*
X123606666Y-119492380D01*
X123225714Y-119492380D01*
X123225714Y-118492380D01*
X123559047Y-118492380D01*
X123654285Y-118540000D01*
X123701904Y-118587619D01*
X123749523Y-118682857D01*
X123749523Y-118778095D01*
X123701904Y-118873333D01*
X123654285Y-118920952D01*
X123559047Y-118968571D01*
X123225714Y-118968571D01*
X124225714Y-119492380D02*
X124225714Y-118492380D01*
X124559047Y-119206666D01*
X124892380Y-118492380D01*
X124892380Y-119492380D01*
X125320952Y-119444761D02*
X125463809Y-119492380D01*
X125701904Y-119492380D01*
X125797142Y-119444761D01*
X125844761Y-119397142D01*
X125892380Y-119301904D01*
X125892380Y-119206666D01*
X125844761Y-119111428D01*
X125797142Y-119063809D01*
X125701904Y-119016190D01*
X125511428Y-118968571D01*
X125416190Y-118920952D01*
X125368571Y-118873333D01*
X125320952Y-118778095D01*
X125320952Y-118682857D01*
X125368571Y-118587619D01*
X125416190Y-118540000D01*
X125511428Y-118492380D01*
X125749523Y-118492380D01*
X125892380Y-118540000D01*
X126320952Y-119492380D02*
X126320952Y-118825714D01*
X126320952Y-118920952D02*
X126368571Y-118873333D01*
X126463809Y-118825714D01*
X126606666Y-118825714D01*
X126701904Y-118873333D01*
X126749523Y-118968571D01*
X126749523Y-119492380D01*
X126749523Y-118968571D02*
X126797142Y-118873333D01*
X126892380Y-118825714D01*
X127035238Y-118825714D01*
X127130476Y-118873333D01*
X127178095Y-118968571D01*
X127178095Y-119492380D01*
X127797142Y-119492380D02*
X127701904Y-119444761D01*
X127654285Y-119397142D01*
X127606666Y-119301904D01*
X127606666Y-119016190D01*
X127654285Y-118920952D01*
X127701904Y-118873333D01*
X127797142Y-118825714D01*
X127940000Y-118825714D01*
X128035238Y-118873333D01*
X128082857Y-118920952D01*
X128130476Y-119016190D01*
X128130476Y-119301904D01*
X128082857Y-119397142D01*
X128035238Y-119444761D01*
X127940000Y-119492380D01*
X127797142Y-119492380D01*
X128987619Y-119492380D02*
X128987619Y-118492380D01*
X128987619Y-119444761D02*
X128892380Y-119492380D01*
X128701904Y-119492380D01*
X128606666Y-119444761D01*
X128559047Y-119397142D01*
X128511428Y-119301904D01*
X128511428Y-119016190D01*
X128559047Y-118920952D01*
X128606666Y-118873333D01*
X128701904Y-118825714D01*
X128892380Y-118825714D01*
X128987619Y-118873333D01*
X129892380Y-118825714D02*
X129892380Y-119492380D01*
X129463809Y-118825714D02*
X129463809Y-119349523D01*
X129511428Y-119444761D01*
X129606666Y-119492380D01*
X129749523Y-119492380D01*
X129844761Y-119444761D01*
X129892380Y-119397142D01*
X130511428Y-119492380D02*
X130416190Y-119444761D01*
X130368571Y-119349523D01*
X130368571Y-118492380D01*
X131273333Y-119444761D02*
X131178095Y-119492380D01*
X130987619Y-119492380D01*
X130892380Y-119444761D01*
X130844761Y-119349523D01*
X130844761Y-118968571D01*
X130892380Y-118873333D01*
X130987619Y-118825714D01*
X131178095Y-118825714D01*
X131273333Y-118873333D01*
X131320952Y-118968571D01*
X131320952Y-119063809D01*
X130844761Y-119159047D01*
D13*
X158304666Y-58166666D02*
X157971333Y-58400000D01*
X158304666Y-58566666D02*
X157604666Y-58566666D01*
X157604666Y-58300000D01*
X157638000Y-58233333D01*
X157671333Y-58200000D01*
X157738000Y-58166666D01*
X157838000Y-58166666D01*
X157904666Y-58200000D01*
X157938000Y-58233333D01*
X157971333Y-58300000D01*
X157971333Y-58566666D01*
X157938000Y-57866666D02*
X157938000Y-57633333D01*
X158304666Y-57533333D02*
X158304666Y-57866666D01*
X157604666Y-57866666D01*
X157604666Y-57533333D01*
X158271333Y-57266666D02*
X158304666Y-57166666D01*
X158304666Y-57000000D01*
X158271333Y-56933333D01*
X158238000Y-56900000D01*
X158171333Y-56866666D01*
X158104666Y-56866666D01*
X158038000Y-56900000D01*
X158004666Y-56933333D01*
X157971333Y-57000000D01*
X157938000Y-57133333D01*
X157904666Y-57200000D01*
X157871333Y-57233333D01*
X157804666Y-57266666D01*
X157738000Y-57266666D01*
X157671333Y-57233333D01*
X157638000Y-57200000D01*
X157604666Y-57133333D01*
X157604666Y-56966666D01*
X157638000Y-56866666D01*
X157938000Y-56566666D02*
X157938000Y-56333333D01*
X158304666Y-56233333D02*
X158304666Y-56566666D01*
X157604666Y-56566666D01*
X157604666Y-56233333D01*
X157604666Y-56033333D02*
X157604666Y-55633333D01*
X158304666Y-55833333D02*
X157604666Y-55833333D01*
X155731333Y-58633333D02*
X155764666Y-58533333D01*
X155764666Y-58366666D01*
X155731333Y-58300000D01*
X155698000Y-58266666D01*
X155631333Y-58233333D01*
X155564666Y-58233333D01*
X155498000Y-58266666D01*
X155464666Y-58300000D01*
X155431333Y-58366666D01*
X155398000Y-58500000D01*
X155364666Y-58566666D01*
X155331333Y-58600000D01*
X155264666Y-58633333D01*
X155198000Y-58633333D01*
X155131333Y-58600000D01*
X155098000Y-58566666D01*
X155064666Y-58500000D01*
X155064666Y-58333333D01*
X155098000Y-58233333D01*
X155064666Y-58000000D02*
X155764666Y-57833333D01*
X155264666Y-57700000D01*
X155764666Y-57566666D01*
X155064666Y-57400000D01*
X155764666Y-57133333D02*
X155064666Y-57133333D01*
X155064666Y-56966666D01*
X155098000Y-56866666D01*
X155164666Y-56800000D01*
X155231333Y-56766666D01*
X155364666Y-56733333D01*
X155464666Y-56733333D01*
X155598000Y-56766666D01*
X155664666Y-56800000D01*
X155731333Y-56866666D01*
X155764666Y-56966666D01*
X155764666Y-57133333D01*
X155764666Y-56433333D02*
X155064666Y-56433333D01*
X155064666Y-55966666D02*
X155064666Y-55833333D01*
X155098000Y-55766666D01*
X155164666Y-55700000D01*
X155298000Y-55666666D01*
X155531333Y-55666666D01*
X155664666Y-55700000D01*
X155731333Y-55766666D01*
X155764666Y-55833333D01*
X155764666Y-55966666D01*
X155731333Y-56033333D01*
X155664666Y-56100000D01*
X155531333Y-56133333D01*
X155298000Y-56133333D01*
X155164666Y-56100000D01*
X155098000Y-56033333D01*
X155064666Y-55966666D01*
X153191333Y-58733333D02*
X153224666Y-58633333D01*
X153224666Y-58466666D01*
X153191333Y-58400000D01*
X153158000Y-58366666D01*
X153091333Y-58333333D01*
X153024666Y-58333333D01*
X152958000Y-58366666D01*
X152924666Y-58400000D01*
X152891333Y-58466666D01*
X152858000Y-58600000D01*
X152824666Y-58666666D01*
X152791333Y-58700000D01*
X152724666Y-58733333D01*
X152658000Y-58733333D01*
X152591333Y-58700000D01*
X152558000Y-58666666D01*
X152524666Y-58600000D01*
X152524666Y-58433333D01*
X152558000Y-58333333D01*
X152524666Y-58100000D02*
X153224666Y-57933333D01*
X152724666Y-57800000D01*
X153224666Y-57666666D01*
X152524666Y-57500000D01*
X153158000Y-56833333D02*
X153191333Y-56866666D01*
X153224666Y-56966666D01*
X153224666Y-57033333D01*
X153191333Y-57133333D01*
X153124666Y-57200000D01*
X153058000Y-57233333D01*
X152924666Y-57266666D01*
X152824666Y-57266666D01*
X152691333Y-57233333D01*
X152624666Y-57200000D01*
X152558000Y-57133333D01*
X152524666Y-57033333D01*
X152524666Y-56966666D01*
X152558000Y-56866666D01*
X152591333Y-56833333D01*
X153224666Y-56200000D02*
X153224666Y-56533333D01*
X152524666Y-56533333D01*
X153224666Y-55966666D02*
X152524666Y-55966666D01*
X153224666Y-55566666D02*
X152824666Y-55866666D01*
X152524666Y-55566666D02*
X152924666Y-55966666D01*
X150018000Y-58191333D02*
X149984666Y-58258000D01*
X149984666Y-58358000D01*
X150018000Y-58458000D01*
X150084666Y-58524666D01*
X150151333Y-58558000D01*
X150284666Y-58591333D01*
X150384666Y-58591333D01*
X150518000Y-58558000D01*
X150584666Y-58524666D01*
X150651333Y-58458000D01*
X150684666Y-58358000D01*
X150684666Y-58291333D01*
X150651333Y-58191333D01*
X150618000Y-58158000D01*
X150384666Y-58158000D01*
X150384666Y-58291333D01*
X150684666Y-57858000D02*
X149984666Y-57858000D01*
X150684666Y-57458000D01*
X149984666Y-57458000D01*
X150684666Y-57124666D02*
X149984666Y-57124666D01*
X149984666Y-56958000D01*
X150018000Y-56858000D01*
X150084666Y-56791333D01*
X150151333Y-56758000D01*
X150284666Y-56724666D01*
X150384666Y-56724666D01*
X150518000Y-56758000D01*
X150584666Y-56791333D01*
X150651333Y-56858000D01*
X150684666Y-56958000D01*
X150684666Y-57124666D01*
X147444666Y-58691333D02*
X147444666Y-58258000D01*
X147711333Y-58491333D01*
X147711333Y-58391333D01*
X147744666Y-58324666D01*
X147778000Y-58291333D01*
X147844666Y-58258000D01*
X148011333Y-58258000D01*
X148078000Y-58291333D01*
X148111333Y-58324666D01*
X148144666Y-58391333D01*
X148144666Y-58591333D01*
X148111333Y-58658000D01*
X148078000Y-58691333D01*
X148078000Y-57958000D02*
X148111333Y-57924666D01*
X148144666Y-57958000D01*
X148111333Y-57991333D01*
X148078000Y-57958000D01*
X148144666Y-57958000D01*
X147444666Y-57691333D02*
X147444666Y-57258000D01*
X147711333Y-57491333D01*
X147711333Y-57391333D01*
X147744666Y-57324666D01*
X147778000Y-57291333D01*
X147844666Y-57258000D01*
X148011333Y-57258000D01*
X148078000Y-57291333D01*
X148111333Y-57324666D01*
X148144666Y-57391333D01*
X148144666Y-57591333D01*
X148111333Y-57658000D01*
X148078000Y-57691333D01*
X147444666Y-57058000D02*
X148144666Y-56824666D01*
X147444666Y-56591333D01*
X130426666Y-91995333D02*
X130993333Y-91995333D01*
X131060000Y-91962000D01*
X131093333Y-91928666D01*
X131126666Y-91862000D01*
X131126666Y-91728666D01*
X131093333Y-91662000D01*
X131060000Y-91628666D01*
X130993333Y-91595333D01*
X130426666Y-91595333D01*
X130926666Y-91295333D02*
X130926666Y-90962000D01*
X131126666Y-91362000D02*
X130426666Y-91128666D01*
X131126666Y-90895333D01*
X131126666Y-90262000D02*
X130793333Y-90495333D01*
X131126666Y-90662000D02*
X130426666Y-90662000D01*
X130426666Y-90395333D01*
X130460000Y-90328666D01*
X130493333Y-90295333D01*
X130560000Y-90262000D01*
X130660000Y-90262000D01*
X130726666Y-90295333D01*
X130760000Y-90328666D01*
X130793333Y-90395333D01*
X130793333Y-90662000D01*
X130426666Y-90062000D02*
X130426666Y-89662000D01*
X131126666Y-89862000D02*
X130426666Y-89862000D01*
X130493333Y-89462000D02*
X130460000Y-89428666D01*
X130426666Y-89362000D01*
X130426666Y-89195333D01*
X130460000Y-89128666D01*
X130493333Y-89095333D01*
X130560000Y-89062000D01*
X130626666Y-89062000D01*
X130726666Y-89095333D01*
X131126666Y-89495333D01*
X131126666Y-89062000D01*
X131126666Y-88228666D02*
X130426666Y-88228666D01*
X130426666Y-87962000D01*
X130460000Y-87895333D01*
X130493333Y-87862000D01*
X130560000Y-87828666D01*
X130660000Y-87828666D01*
X130726666Y-87862000D01*
X130760000Y-87895333D01*
X130793333Y-87962000D01*
X130793333Y-88228666D01*
X130426666Y-87628666D02*
X130426666Y-87228666D01*
X131126666Y-87428666D02*
X130426666Y-87428666D01*
X125196666Y-86992666D02*
X125596666Y-86992666D01*
X125396666Y-87692666D02*
X125396666Y-86992666D01*
X125763333Y-86992666D02*
X126230000Y-87692666D01*
X126230000Y-86992666D02*
X125763333Y-87692666D01*
X125196666Y-72768666D02*
X125596666Y-72768666D01*
X125396666Y-73468666D02*
X125396666Y-72768666D01*
X125763333Y-72768666D02*
X126230000Y-73468666D01*
X126230000Y-72768666D02*
X125763333Y-73468666D01*
X130680666Y-77771333D02*
X131247333Y-77771333D01*
X131314000Y-77738000D01*
X131347333Y-77704666D01*
X131380666Y-77638000D01*
X131380666Y-77504666D01*
X131347333Y-77438000D01*
X131314000Y-77404666D01*
X131247333Y-77371333D01*
X130680666Y-77371333D01*
X131180666Y-77071333D02*
X131180666Y-76738000D01*
X131380666Y-77138000D02*
X130680666Y-76904666D01*
X131380666Y-76671333D01*
X131380666Y-76038000D02*
X131047333Y-76271333D01*
X131380666Y-76438000D02*
X130680666Y-76438000D01*
X130680666Y-76171333D01*
X130714000Y-76104666D01*
X130747333Y-76071333D01*
X130814000Y-76038000D01*
X130914000Y-76038000D01*
X130980666Y-76071333D01*
X131014000Y-76104666D01*
X131047333Y-76171333D01*
X131047333Y-76438000D01*
X130680666Y-75838000D02*
X130680666Y-75438000D01*
X131380666Y-75638000D02*
X130680666Y-75638000D01*
X131380666Y-74838000D02*
X131380666Y-75238000D01*
X131380666Y-75038000D02*
X130680666Y-75038000D01*
X130780666Y-75104666D01*
X130847333Y-75171333D01*
X130880666Y-75238000D01*
X131380666Y-74004666D02*
X130680666Y-74004666D01*
X130680666Y-73738000D01*
X130714000Y-73671333D01*
X130747333Y-73638000D01*
X130814000Y-73604666D01*
X130914000Y-73604666D01*
X130980666Y-73638000D01*
X131014000Y-73671333D01*
X131047333Y-73738000D01*
X131047333Y-74004666D01*
X130680666Y-73404666D02*
X130680666Y-73004666D01*
X131380666Y-73204666D02*
X130680666Y-73204666D01*
D14*
X64828571Y-63007142D02*
X65971428Y-63007142D01*
X65400000Y-63578571D02*
X65400000Y-62435714D01*
D13*
X68050000Y-60200000D02*
X68083333Y-60100000D01*
X68116666Y-60066666D01*
X68183333Y-60033333D01*
X68283333Y-60033333D01*
X68350000Y-60066666D01*
X68383333Y-60100000D01*
X68416666Y-60166666D01*
X68416666Y-60433333D01*
X67716666Y-60433333D01*
X67716666Y-60200000D01*
X67750000Y-60133333D01*
X67783333Y-60100000D01*
X67850000Y-60066666D01*
X67916666Y-60066666D01*
X67983333Y-60100000D01*
X68016666Y-60133333D01*
X68050000Y-60200000D01*
X68050000Y-60433333D01*
X68216666Y-59766666D02*
X68216666Y-59433333D01*
X68416666Y-59833333D02*
X67716666Y-59600000D01*
X68416666Y-59366666D01*
X67716666Y-59233333D02*
X67716666Y-58833333D01*
X68416666Y-59033333D02*
X67716666Y-59033333D01*
X67716666Y-58700000D02*
X67716666Y-58300000D01*
X68416666Y-58500000D02*
X67716666Y-58500000D01*
X68350000Y-57133333D02*
X68383333Y-57166666D01*
X68416666Y-57266666D01*
X68416666Y-57333333D01*
X68383333Y-57433333D01*
X68316666Y-57500000D01*
X68250000Y-57533333D01*
X68116666Y-57566666D01*
X68016666Y-57566666D01*
X67883333Y-57533333D01*
X67816666Y-57500000D01*
X67750000Y-57433333D01*
X67716666Y-57333333D01*
X67716666Y-57266666D01*
X67750000Y-57166666D01*
X67783333Y-57133333D01*
X67716666Y-56700000D02*
X67716666Y-56566666D01*
X67750000Y-56500000D01*
X67816666Y-56433333D01*
X67950000Y-56400000D01*
X68183333Y-56400000D01*
X68316666Y-56433333D01*
X68383333Y-56500000D01*
X68416666Y-56566666D01*
X68416666Y-56700000D01*
X68383333Y-56766666D01*
X68316666Y-56833333D01*
X68183333Y-56866666D01*
X67950000Y-56866666D01*
X67816666Y-56833333D01*
X67750000Y-56766666D01*
X67716666Y-56700000D01*
X68416666Y-56100000D02*
X67716666Y-56100000D01*
X68416666Y-55700000D01*
X67716666Y-55700000D01*
X68416666Y-55366666D02*
X67716666Y-55366666D01*
X68416666Y-54966666D01*
X67716666Y-54966666D01*
X96932000Y-80289333D02*
X96898666Y-80356000D01*
X96898666Y-80456000D01*
X96932000Y-80556000D01*
X96998666Y-80622666D01*
X97065333Y-80656000D01*
X97198666Y-80689333D01*
X97298666Y-80689333D01*
X97432000Y-80656000D01*
X97498666Y-80622666D01*
X97565333Y-80556000D01*
X97598666Y-80456000D01*
X97598666Y-80389333D01*
X97565333Y-80289333D01*
X97532000Y-80256000D01*
X97298666Y-80256000D01*
X97298666Y-80389333D01*
X97598666Y-79956000D02*
X96898666Y-79956000D01*
X97598666Y-79556000D01*
X96898666Y-79556000D01*
X97598666Y-79222666D02*
X96898666Y-79222666D01*
X96898666Y-79056000D01*
X96932000Y-78956000D01*
X96998666Y-78889333D01*
X97065333Y-78856000D01*
X97198666Y-78822666D01*
X97298666Y-78822666D01*
X97432000Y-78856000D01*
X97498666Y-78889333D01*
X97565333Y-78956000D01*
X97598666Y-79056000D01*
X97598666Y-79222666D01*
X88262666Y-81043333D02*
X88262666Y-80610000D01*
X88529333Y-80843333D01*
X88529333Y-80743333D01*
X88562666Y-80676666D01*
X88596000Y-80643333D01*
X88662666Y-80610000D01*
X88829333Y-80610000D01*
X88896000Y-80643333D01*
X88929333Y-80676666D01*
X88962666Y-80743333D01*
X88962666Y-80943333D01*
X88929333Y-81010000D01*
X88896000Y-81043333D01*
X88896000Y-80310000D02*
X88929333Y-80276666D01*
X88962666Y-80310000D01*
X88929333Y-80343333D01*
X88896000Y-80310000D01*
X88962666Y-80310000D01*
X88262666Y-80043333D02*
X88262666Y-79610000D01*
X88529333Y-79843333D01*
X88529333Y-79743333D01*
X88562666Y-79676666D01*
X88596000Y-79643333D01*
X88662666Y-79610000D01*
X88829333Y-79610000D01*
X88896000Y-79643333D01*
X88929333Y-79676666D01*
X88962666Y-79743333D01*
X88962666Y-79943333D01*
X88929333Y-80010000D01*
X88896000Y-80043333D01*
X88262666Y-79410000D02*
X88962666Y-79176666D01*
X88262666Y-78943333D01*
X80976000Y-82110000D02*
X81009333Y-82010000D01*
X81042666Y-81976666D01*
X81109333Y-81943333D01*
X81209333Y-81943333D01*
X81276000Y-81976666D01*
X81309333Y-82010000D01*
X81342666Y-82076666D01*
X81342666Y-82343333D01*
X80642666Y-82343333D01*
X80642666Y-82110000D01*
X80676000Y-82043333D01*
X80709333Y-82010000D01*
X80776000Y-81976666D01*
X80842666Y-81976666D01*
X80909333Y-82010000D01*
X80942666Y-82043333D01*
X80976000Y-82110000D01*
X80976000Y-82343333D01*
X81142666Y-81676666D02*
X81142666Y-81343333D01*
X81342666Y-81743333D02*
X80642666Y-81510000D01*
X81342666Y-81276666D01*
X80642666Y-81143333D02*
X80642666Y-80743333D01*
X81342666Y-80943333D02*
X80642666Y-80943333D01*
X80642666Y-80610000D02*
X80642666Y-80210000D01*
X81342666Y-80410000D02*
X80642666Y-80410000D01*
X81076000Y-79976666D02*
X81076000Y-79443333D01*
X81342666Y-79710000D02*
X80809333Y-79710000D01*
X81342666Y-78576666D02*
X80642666Y-78576666D01*
X80642666Y-78310000D01*
X80676000Y-78243333D01*
X80709333Y-78210000D01*
X80776000Y-78176666D01*
X80876000Y-78176666D01*
X80942666Y-78210000D01*
X80976000Y-78243333D01*
X81009333Y-78310000D01*
X81009333Y-78576666D01*
X80642666Y-77976666D02*
X80642666Y-77576666D01*
X81342666Y-77776666D02*
X80642666Y-77776666D01*
X67514000Y-108497333D02*
X67547333Y-108397333D01*
X67580666Y-108364000D01*
X67647333Y-108330666D01*
X67747333Y-108330666D01*
X67814000Y-108364000D01*
X67847333Y-108397333D01*
X67880666Y-108464000D01*
X67880666Y-108730666D01*
X67180666Y-108730666D01*
X67180666Y-108497333D01*
X67214000Y-108430666D01*
X67247333Y-108397333D01*
X67314000Y-108364000D01*
X67380666Y-108364000D01*
X67447333Y-108397333D01*
X67480666Y-108430666D01*
X67514000Y-108497333D01*
X67514000Y-108730666D01*
X67680666Y-108064000D02*
X67680666Y-107730666D01*
X67880666Y-108130666D02*
X67180666Y-107897333D01*
X67880666Y-107664000D01*
X67180666Y-107530666D02*
X67180666Y-107130666D01*
X67880666Y-107330666D02*
X67180666Y-107330666D01*
X67180666Y-106997333D02*
X67180666Y-106597333D01*
X67880666Y-106797333D02*
X67180666Y-106797333D01*
X67614000Y-106364000D02*
X67614000Y-105830666D01*
X67880666Y-106097333D02*
X67347333Y-106097333D01*
X67880666Y-104597333D02*
X67880666Y-104997333D01*
X67880666Y-104797333D02*
X67180666Y-104797333D01*
X67280666Y-104864000D01*
X67347333Y-104930666D01*
X67380666Y-104997333D01*
X67247333Y-104330666D02*
X67214000Y-104297333D01*
X67180666Y-104230666D01*
X67180666Y-104064000D01*
X67214000Y-103997333D01*
X67247333Y-103964000D01*
X67314000Y-103930666D01*
X67380666Y-103930666D01*
X67480666Y-103964000D01*
X67880666Y-104364000D01*
X67880666Y-103930666D01*
X67880666Y-103630666D02*
X67180666Y-103630666D01*
X67447333Y-103630666D02*
X67414000Y-103564000D01*
X67414000Y-103430666D01*
X67447333Y-103364000D01*
X67480666Y-103330666D01*
X67547333Y-103297333D01*
X67747333Y-103297333D01*
X67814000Y-103330666D01*
X67847333Y-103364000D01*
X67880666Y-103430666D01*
X67880666Y-103564000D01*
X67847333Y-103630666D01*
X67880666Y-102997333D02*
X67414000Y-102997333D01*
X67180666Y-102997333D02*
X67214000Y-103030666D01*
X67247333Y-102997333D01*
X67214000Y-102964000D01*
X67180666Y-102997333D01*
X67247333Y-102997333D01*
X67414000Y-102764000D02*
X67414000Y-102497333D01*
X67180666Y-102664000D02*
X67780666Y-102664000D01*
X67847333Y-102630666D01*
X67880666Y-102564000D01*
X67880666Y-102497333D01*
X119076000Y-114847333D02*
X119109333Y-114747333D01*
X119142666Y-114714000D01*
X119209333Y-114680666D01*
X119309333Y-114680666D01*
X119376000Y-114714000D01*
X119409333Y-114747333D01*
X119442666Y-114814000D01*
X119442666Y-115080666D01*
X118742666Y-115080666D01*
X118742666Y-114847333D01*
X118776000Y-114780666D01*
X118809333Y-114747333D01*
X118876000Y-114714000D01*
X118942666Y-114714000D01*
X119009333Y-114747333D01*
X119042666Y-114780666D01*
X119076000Y-114847333D01*
X119076000Y-115080666D01*
X119242666Y-114414000D02*
X119242666Y-114080666D01*
X119442666Y-114480666D02*
X118742666Y-114247333D01*
X119442666Y-114014000D01*
X118742666Y-113880666D02*
X118742666Y-113480666D01*
X119442666Y-113680666D02*
X118742666Y-113680666D01*
X118742666Y-113347333D02*
X118742666Y-112947333D01*
X119442666Y-113147333D02*
X118742666Y-113147333D01*
X119176000Y-112714000D02*
X119176000Y-112180666D01*
X119442666Y-112447333D02*
X118909333Y-112447333D01*
X119442666Y-110947333D02*
X119442666Y-111347333D01*
X119442666Y-111147333D02*
X118742666Y-111147333D01*
X118842666Y-111214000D01*
X118909333Y-111280666D01*
X118942666Y-111347333D01*
X118742666Y-110347333D02*
X118742666Y-110480666D01*
X118776000Y-110547333D01*
X118809333Y-110580666D01*
X118909333Y-110647333D01*
X119042666Y-110680666D01*
X119309333Y-110680666D01*
X119376000Y-110647333D01*
X119409333Y-110614000D01*
X119442666Y-110547333D01*
X119442666Y-110414000D01*
X119409333Y-110347333D01*
X119376000Y-110314000D01*
X119309333Y-110280666D01*
X119142666Y-110280666D01*
X119076000Y-110314000D01*
X119042666Y-110347333D01*
X119009333Y-110414000D01*
X119009333Y-110547333D01*
X119042666Y-110614000D01*
X119076000Y-110647333D01*
X119142666Y-110680666D01*
X119442666Y-109980666D02*
X118742666Y-109980666D01*
X119009333Y-109980666D02*
X118976000Y-109914000D01*
X118976000Y-109780666D01*
X119009333Y-109714000D01*
X119042666Y-109680666D01*
X119109333Y-109647333D01*
X119309333Y-109647333D01*
X119376000Y-109680666D01*
X119409333Y-109714000D01*
X119442666Y-109780666D01*
X119442666Y-109914000D01*
X119409333Y-109980666D01*
X119442666Y-109347333D02*
X118976000Y-109347333D01*
X118742666Y-109347333D02*
X118776000Y-109380666D01*
X118809333Y-109347333D01*
X118776000Y-109314000D01*
X118742666Y-109347333D01*
X118809333Y-109347333D01*
X118976000Y-109114000D02*
X118976000Y-108847333D01*
X118742666Y-109014000D02*
X119342666Y-109014000D01*
X119409333Y-108980666D01*
X119442666Y-108914000D01*
X119442666Y-108847333D01*
X155764666Y-85808000D02*
X155064666Y-85808000D01*
X155398000Y-85808000D02*
X155398000Y-85408000D01*
X155764666Y-85408000D02*
X155064666Y-85408000D01*
X155564666Y-85108000D02*
X155564666Y-84774666D01*
X155764666Y-85174666D02*
X155064666Y-84941333D01*
X155764666Y-84708000D01*
X155764666Y-84141333D02*
X155764666Y-84474666D01*
X155064666Y-84474666D01*
X155398000Y-83674666D02*
X155398000Y-83908000D01*
X155764666Y-83908000D02*
X155064666Y-83908000D01*
X155064666Y-83574666D01*
X155498000Y-83308000D02*
X155498000Y-82774666D01*
X155764666Y-82441333D02*
X155064666Y-82441333D01*
X155064666Y-82274666D01*
X155098000Y-82174666D01*
X155164666Y-82108000D01*
X155231333Y-82074666D01*
X155364666Y-82041333D01*
X155464666Y-82041333D01*
X155598000Y-82074666D01*
X155664666Y-82108000D01*
X155731333Y-82174666D01*
X155764666Y-82274666D01*
X155764666Y-82441333D01*
X155764666Y-81208000D02*
X155064666Y-81208000D01*
X155064666Y-80941333D01*
X155098000Y-80874666D01*
X155131333Y-80841333D01*
X155198000Y-80808000D01*
X155298000Y-80808000D01*
X155364666Y-80841333D01*
X155398000Y-80874666D01*
X155431333Y-80941333D01*
X155431333Y-81208000D01*
X155064666Y-80608000D02*
X155064666Y-80208000D01*
X155764666Y-80408000D02*
X155064666Y-80408000D01*
X155144000Y-100128000D02*
X155144000Y-100361333D01*
X155510666Y-100361333D02*
X154810666Y-100361333D01*
X154810666Y-100028000D01*
X154810666Y-99761333D02*
X155377333Y-99761333D01*
X155444000Y-99728000D01*
X155477333Y-99694666D01*
X155510666Y-99628000D01*
X155510666Y-99494666D01*
X155477333Y-99428000D01*
X155444000Y-99394666D01*
X155377333Y-99361333D01*
X154810666Y-99361333D01*
X155510666Y-98694666D02*
X155510666Y-99028000D01*
X154810666Y-99028000D01*
X155510666Y-98128000D02*
X155510666Y-98461333D01*
X154810666Y-98461333D01*
X155244000Y-97894666D02*
X155244000Y-97361333D01*
X155510666Y-97028000D02*
X154810666Y-97028000D01*
X154810666Y-96861333D01*
X154844000Y-96761333D01*
X154910666Y-96694666D01*
X154977333Y-96661333D01*
X155110666Y-96628000D01*
X155210666Y-96628000D01*
X155344000Y-96661333D01*
X155410666Y-96694666D01*
X155477333Y-96761333D01*
X155510666Y-96861333D01*
X155510666Y-97028000D01*
X155510666Y-95794666D02*
X154810666Y-95794666D01*
X154810666Y-95528000D01*
X154844000Y-95461333D01*
X154877333Y-95428000D01*
X154944000Y-95394666D01*
X155044000Y-95394666D01*
X155110666Y-95428000D01*
X155144000Y-95461333D01*
X155177333Y-95528000D01*
X155177333Y-95794666D01*
X154810666Y-95194666D02*
X154810666Y-94794666D01*
X155510666Y-94994666D02*
X154810666Y-94994666D01*
X155510666Y-93661333D02*
X155510666Y-94061333D01*
X155510666Y-93861333D02*
X154810666Y-93861333D01*
X154910666Y-93928000D01*
X154977333Y-93994666D01*
X155010666Y-94061333D01*
X155144000Y-111812000D02*
X155144000Y-112045333D01*
X155510666Y-112045333D02*
X154810666Y-112045333D01*
X154810666Y-111712000D01*
X154810666Y-111445333D02*
X155377333Y-111445333D01*
X155444000Y-111412000D01*
X155477333Y-111378666D01*
X155510666Y-111312000D01*
X155510666Y-111178666D01*
X155477333Y-111112000D01*
X155444000Y-111078666D01*
X155377333Y-111045333D01*
X154810666Y-111045333D01*
X155510666Y-110378666D02*
X155510666Y-110712000D01*
X154810666Y-110712000D01*
X155510666Y-109812000D02*
X155510666Y-110145333D01*
X154810666Y-110145333D01*
X155244000Y-109578666D02*
X155244000Y-109045333D01*
X155510666Y-108712000D02*
X154810666Y-108712000D01*
X154810666Y-108545333D01*
X154844000Y-108445333D01*
X154910666Y-108378666D01*
X154977333Y-108345333D01*
X155110666Y-108312000D01*
X155210666Y-108312000D01*
X155344000Y-108345333D01*
X155410666Y-108378666D01*
X155477333Y-108445333D01*
X155510666Y-108545333D01*
X155510666Y-108712000D01*
X155510666Y-107478666D02*
X154810666Y-107478666D01*
X154810666Y-107212000D01*
X154844000Y-107145333D01*
X154877333Y-107112000D01*
X154944000Y-107078666D01*
X155044000Y-107078666D01*
X155110666Y-107112000D01*
X155144000Y-107145333D01*
X155177333Y-107212000D01*
X155177333Y-107478666D01*
X154810666Y-106878666D02*
X154810666Y-106478666D01*
X155510666Y-106678666D02*
X154810666Y-106678666D01*
X154877333Y-105745333D02*
X154844000Y-105712000D01*
X154810666Y-105645333D01*
X154810666Y-105478666D01*
X154844000Y-105412000D01*
X154877333Y-105378666D01*
X154944000Y-105345333D01*
X155010666Y-105345333D01*
X155110666Y-105378666D01*
X155510666Y-105778666D01*
X155510666Y-105345333D01*
X181812000Y-102566000D02*
X181578666Y-102566000D01*
X181578666Y-102932666D02*
X181578666Y-102232666D01*
X181912000Y-102232666D01*
X182178666Y-102232666D02*
X182178666Y-102799333D01*
X182212000Y-102866000D01*
X182245333Y-102899333D01*
X182312000Y-102932666D01*
X182445333Y-102932666D01*
X182512000Y-102899333D01*
X182545333Y-102866000D01*
X182578666Y-102799333D01*
X182578666Y-102232666D01*
X183245333Y-102932666D02*
X182912000Y-102932666D01*
X182912000Y-102232666D01*
X183812000Y-102932666D02*
X183478666Y-102932666D01*
X183478666Y-102232666D01*
X184045333Y-102666000D02*
X184578666Y-102666000D01*
X184912000Y-102932666D02*
X184912000Y-102232666D01*
X185078666Y-102232666D01*
X185178666Y-102266000D01*
X185245333Y-102332666D01*
X185278666Y-102399333D01*
X185312000Y-102532666D01*
X185312000Y-102632666D01*
X185278666Y-102766000D01*
X185245333Y-102832666D01*
X185178666Y-102899333D01*
X185078666Y-102932666D01*
X184912000Y-102932666D01*
X186145333Y-102932666D02*
X186145333Y-102232666D01*
X186412000Y-102232666D01*
X186478666Y-102266000D01*
X186512000Y-102299333D01*
X186545333Y-102366000D01*
X186545333Y-102466000D01*
X186512000Y-102532666D01*
X186478666Y-102566000D01*
X186412000Y-102599333D01*
X186145333Y-102599333D01*
X186745333Y-102232666D02*
X187145333Y-102232666D01*
X186945333Y-102932666D02*
X186945333Y-102232666D01*
X187878666Y-102299333D02*
X187912000Y-102266000D01*
X187978666Y-102232666D01*
X188145333Y-102232666D01*
X188212000Y-102266000D01*
X188245333Y-102299333D01*
X188278666Y-102366000D01*
X188278666Y-102432666D01*
X188245333Y-102532666D01*
X187845333Y-102932666D01*
X188278666Y-102932666D01*
X182066000Y-89358000D02*
X181832666Y-89358000D01*
X181832666Y-89724666D02*
X181832666Y-89024666D01*
X182166000Y-89024666D01*
X182432666Y-89024666D02*
X182432666Y-89591333D01*
X182466000Y-89658000D01*
X182499333Y-89691333D01*
X182566000Y-89724666D01*
X182699333Y-89724666D01*
X182766000Y-89691333D01*
X182799333Y-89658000D01*
X182832666Y-89591333D01*
X182832666Y-89024666D01*
X183499333Y-89724666D02*
X183166000Y-89724666D01*
X183166000Y-89024666D01*
X184066000Y-89724666D02*
X183732666Y-89724666D01*
X183732666Y-89024666D01*
X184299333Y-89458000D02*
X184832666Y-89458000D01*
X185166000Y-89724666D02*
X185166000Y-89024666D01*
X185332666Y-89024666D01*
X185432666Y-89058000D01*
X185499333Y-89124666D01*
X185532666Y-89191333D01*
X185566000Y-89324666D01*
X185566000Y-89424666D01*
X185532666Y-89558000D01*
X185499333Y-89624666D01*
X185432666Y-89691333D01*
X185332666Y-89724666D01*
X185166000Y-89724666D01*
X186399333Y-89724666D02*
X186399333Y-89024666D01*
X186666000Y-89024666D01*
X186732666Y-89058000D01*
X186766000Y-89091333D01*
X186799333Y-89158000D01*
X186799333Y-89258000D01*
X186766000Y-89324666D01*
X186732666Y-89358000D01*
X186666000Y-89391333D01*
X186399333Y-89391333D01*
X186999333Y-89024666D02*
X187399333Y-89024666D01*
X187199333Y-89724666D02*
X187199333Y-89024666D01*
X188532666Y-89724666D02*
X188132666Y-89724666D01*
X188332666Y-89724666D02*
X188332666Y-89024666D01*
X188266000Y-89124666D01*
X188199333Y-89191333D01*
X188132666Y-89224666D01*
X182670000Y-74230666D02*
X182670000Y-73530666D01*
X182670000Y-73864000D02*
X183070000Y-73864000D01*
X183070000Y-74230666D02*
X183070000Y-73530666D01*
X183370000Y-74030666D02*
X183703333Y-74030666D01*
X183303333Y-74230666D02*
X183536666Y-73530666D01*
X183770000Y-74230666D01*
X184336666Y-74230666D02*
X184003333Y-74230666D01*
X184003333Y-73530666D01*
X184803333Y-73864000D02*
X184570000Y-73864000D01*
X184570000Y-74230666D02*
X184570000Y-73530666D01*
X184903333Y-73530666D01*
X185170000Y-73964000D02*
X185703333Y-73964000D01*
X186036666Y-74230666D02*
X186036666Y-73530666D01*
X186203333Y-73530666D01*
X186303333Y-73564000D01*
X186370000Y-73630666D01*
X186403333Y-73697333D01*
X186436666Y-73830666D01*
X186436666Y-73930666D01*
X186403333Y-74064000D01*
X186370000Y-74130666D01*
X186303333Y-74197333D01*
X186203333Y-74230666D01*
X186036666Y-74230666D01*
X187270000Y-74230666D02*
X187270000Y-73530666D01*
X187536666Y-73530666D01*
X187603333Y-73564000D01*
X187636666Y-73597333D01*
X187670000Y-73664000D01*
X187670000Y-73764000D01*
X187636666Y-73830666D01*
X187603333Y-73864000D01*
X187536666Y-73897333D01*
X187270000Y-73897333D01*
X187870000Y-73530666D02*
X188270000Y-73530666D01*
X188070000Y-74230666D02*
X188070000Y-73530666D01*
X123898000Y-80326666D02*
X123498000Y-80326666D01*
X123698000Y-80326666D02*
X123698000Y-79626666D01*
X123631333Y-79726666D01*
X123564666Y-79793333D01*
X123498000Y-79826666D01*
X99768000Y-104456666D02*
X99368000Y-104456666D01*
X99568000Y-104456666D02*
X99568000Y-103756666D01*
X99501333Y-103856666D01*
X99434666Y-103923333D01*
X99368000Y-103956666D01*
X91132000Y-63816666D02*
X90732000Y-63816666D01*
X90932000Y-63816666D02*
X90932000Y-63116666D01*
X90865333Y-63216666D01*
X90798666Y-63283333D01*
X90732000Y-63316666D01*
X124522666Y-101146000D02*
X124522666Y-101546000D01*
X124522666Y-101346000D02*
X123822666Y-101346000D01*
X123922666Y-101412666D01*
X123989333Y-101479333D01*
X124022666Y-101546000D01*
D15*
%TO.C,J1*%
X67525000Y-62160000D02*
X67525000Y-53610000D01*
X63075000Y-62160000D02*
X67525000Y-62160000D01*
X63075000Y-53610000D02*
X63075000Y-62160000D01*
X67525000Y-53610000D02*
X63075000Y-53610000D01*
D16*
X63800000Y-58860000D02*
X66800000Y-58860000D01*
X63800000Y-61860000D02*
X63800000Y-58860000D01*
X66800000Y-61860000D02*
X63800000Y-61860000D01*
X66800000Y-58860000D02*
X66800000Y-61860000D01*
D15*
%TO.C,U8*%
X187495000Y-113306000D02*
X188170000Y-112811000D01*
X187495000Y-113311000D02*
X182645000Y-113311000D01*
X182645000Y-113311000D02*
X182570000Y-113311000D01*
X182570000Y-113311000D02*
X182570000Y-105811000D01*
X182570000Y-105811000D02*
X188295000Y-105811000D01*
X188295000Y-105811000D02*
X188295000Y-112686000D01*
X188170000Y-112811000D02*
X188295000Y-112711000D01*
X188295000Y-112711000D02*
X188295000Y-112686000D01*
X181670000Y-114486000D02*
X189420000Y-114486000D01*
X189420000Y-114486000D02*
X189420000Y-104761000D01*
X189420000Y-104761000D02*
X181670000Y-104761000D01*
X181670000Y-104761000D02*
X181670000Y-114486000D01*
%TO.C,U6*%
X187495000Y-83080000D02*
X188170000Y-82585000D01*
X187495000Y-83085000D02*
X182645000Y-83085000D01*
X182645000Y-83085000D02*
X182570000Y-83085000D01*
X182570000Y-83085000D02*
X182570000Y-75585000D01*
X182570000Y-75585000D02*
X188295000Y-75585000D01*
X188295000Y-75585000D02*
X188295000Y-82460000D01*
X188170000Y-82585000D02*
X188295000Y-82485000D01*
X188295000Y-82485000D02*
X188295000Y-82460000D01*
X181670000Y-84260000D02*
X189420000Y-84260000D01*
X189420000Y-84260000D02*
X189420000Y-74535000D01*
X189420000Y-74535000D02*
X181670000Y-74535000D01*
X181670000Y-74535000D02*
X181670000Y-84260000D01*
%TO.C,U7*%
X187495000Y-98574000D02*
X188170000Y-98079000D01*
X187495000Y-98579000D02*
X182645000Y-98579000D01*
X182645000Y-98579000D02*
X182570000Y-98579000D01*
X182570000Y-98579000D02*
X182570000Y-91079000D01*
X182570000Y-91079000D02*
X188295000Y-91079000D01*
X188295000Y-91079000D02*
X188295000Y-97954000D01*
X188170000Y-98079000D02*
X188295000Y-97979000D01*
X188295000Y-97979000D02*
X188295000Y-97954000D01*
X181670000Y-99754000D02*
X189420000Y-99754000D01*
X189420000Y-99754000D02*
X189420000Y-90029000D01*
X189420000Y-90029000D02*
X181670000Y-90029000D01*
X181670000Y-90029000D02*
X181670000Y-99754000D01*
%TO.C,L5*%
X168524000Y-96388000D02*
X174294000Y-96388000D01*
X168524000Y-92548000D02*
X168524000Y-96388000D01*
X174894000Y-92548000D02*
X168524000Y-92548000D01*
X174894000Y-95808000D02*
X174894000Y-92548000D01*
%TO.C,L7*%
X168778000Y-111374000D02*
X174548000Y-111374000D01*
X168778000Y-107534000D02*
X168778000Y-111374000D01*
X175148000Y-107534000D02*
X168778000Y-107534000D01*
X175148000Y-110794000D02*
X175148000Y-107534000D01*
%TO.C,L3*%
X168524000Y-80640000D02*
X174294000Y-80640000D01*
X168524000Y-76800000D02*
X168524000Y-80640000D01*
X174894000Y-76800000D02*
X168524000Y-76800000D01*
X174894000Y-80060000D02*
X174894000Y-76800000D01*
%TO.C,R22*%
X95594000Y-100462064D02*
X95594000Y-97657936D01*
X92874000Y-100462064D02*
X92874000Y-97657936D01*
%TO.C,U5*%
X102898000Y-103734000D02*
X100448000Y-103734000D01*
X101098000Y-106954000D02*
X102898000Y-106954000D01*
%TO.C,J12*%
X129600000Y-90992000D02*
X129600000Y-88332000D01*
X127000000Y-90992000D02*
X129600000Y-90992000D01*
X127000000Y-88332000D02*
X129600000Y-88332000D01*
X127000000Y-90992000D02*
X127000000Y-88332000D01*
X125730000Y-90992000D02*
X124400000Y-90992000D01*
X124400000Y-90992000D02*
X124400000Y-89662000D01*
%TO.C,U4*%
X132451000Y-97282000D02*
X132451000Y-95332000D01*
X132451000Y-97282000D02*
X132451000Y-99232000D01*
X123581000Y-97282000D02*
X123581000Y-95332000D01*
X123581000Y-97282000D02*
X123581000Y-100732000D01*
%TO.C,Y1*%
X109984000Y-65293000D02*
X116384000Y-65293000D01*
X109984000Y-70343000D02*
X116384000Y-70343000D01*
X116384000Y-70343000D02*
G75*
G03*
X116384000Y-65293000I0J2525000D01*
G01*
X109984000Y-70343000D02*
G75*
G02*
X109984000Y-65293000I0J2525000D01*
G01*
%TO.C,U3*%
X127954000Y-84590000D02*
X129904000Y-84590000D01*
X127954000Y-84590000D02*
X126004000Y-84590000D01*
X127954000Y-79470000D02*
X129904000Y-79470000D01*
X127954000Y-79470000D02*
X124504000Y-79470000D01*
%TO.C,U2*%
X93374000Y-63192000D02*
X94734000Y-63192000D01*
X93124000Y-63502000D02*
X93374000Y-63192000D01*
X93124000Y-63572000D02*
X93124000Y-63502000D01*
X93124000Y-63662000D02*
X93124000Y-63572000D01*
X93124000Y-65972000D02*
X93124000Y-63662000D01*
X94734000Y-65972000D02*
X94734000Y-63192000D01*
X93124000Y-65972000D02*
X94734000Y-65972000D01*
%TO.C,U1*%
X116780000Y-90730000D02*
X116780000Y-91080000D01*
X116780000Y-91080000D02*
X116330000Y-91080000D01*
X109830000Y-91080000D02*
X109430000Y-91080000D01*
X109430000Y-91080000D02*
X109380000Y-91080000D01*
X109380000Y-91080000D02*
X109380000Y-90730000D01*
X109880000Y-84080000D02*
X109380000Y-84080000D01*
X109380000Y-84080000D02*
X109380000Y-84480000D01*
X116180000Y-84030000D02*
X116180000Y-82730000D01*
X116180000Y-84030000D02*
X116180000Y-84080000D01*
X116180000Y-84080000D02*
X116780000Y-84080000D01*
X116780000Y-84080000D02*
X116780000Y-84480000D01*
%TO.C,TH2*%
X84880620Y-91514775D02*
G75*
G02*
X86652000Y-91623272I971380J1344775D01*
G01*
%TO.C,TH1*%
X77260620Y-91514775D02*
G75*
G02*
X79032000Y-91623272I971380J1344775D01*
G01*
%TO.C,SW1*%
X134858000Y-66206000D02*
X139358000Y-66206000D01*
X133608000Y-62206000D02*
X133608000Y-63706000D01*
X139358000Y-59706000D02*
X134858000Y-59706000D01*
X140608000Y-63706000D02*
X140608000Y-62206000D01*
%TO.C,R38*%
X146020064Y-113178000D02*
X144815936Y-113178000D01*
X146020064Y-111358000D02*
X144815936Y-111358000D01*
%TO.C,R37*%
X144815936Y-105262000D02*
X146020064Y-105262000D01*
X144815936Y-107082000D02*
X146020064Y-107082000D01*
%TO.C,R36*%
X146014064Y-94382000D02*
X144809936Y-94382000D01*
X146014064Y-92562000D02*
X144809936Y-92562000D01*
%TO.C,R35*%
X144685936Y-98658000D02*
X145890064Y-98658000D01*
X144685936Y-100478000D02*
X145890064Y-100478000D01*
%TO.C,R34*%
X124058000Y-106520064D02*
X124058000Y-105315936D01*
X125878000Y-106520064D02*
X125878000Y-105315936D01*
%TO.C,R33*%
X125878000Y-112049936D02*
X125878000Y-113254064D01*
X124058000Y-112049936D02*
X124058000Y-113254064D01*
%TO.C,R32*%
X131466000Y-105445936D02*
X131466000Y-106650064D01*
X129646000Y-105445936D02*
X129646000Y-106650064D01*
%TO.C,R31*%
X145766064Y-76602000D02*
X144561936Y-76602000D01*
X145766064Y-74782000D02*
X144561936Y-74782000D01*
%TO.C,R30*%
X127029936Y-68178000D02*
X128234064Y-68178000D01*
X127029936Y-69998000D02*
X128234064Y-69998000D01*
%TO.C,R29*%
X145890064Y-80920000D02*
X144685936Y-80920000D01*
X145890064Y-79100000D02*
X144685936Y-79100000D01*
%TO.C,R28*%
X145760064Y-86508000D02*
X144555936Y-86508000D01*
X145760064Y-84688000D02*
X144555936Y-84688000D01*
%TO.C,R27*%
X128234064Y-61616000D02*
X127029936Y-61616000D01*
X128234064Y-59796000D02*
X127029936Y-59796000D01*
%TO.C,R26*%
X101629936Y-110088000D02*
X102834064Y-110088000D01*
X101629936Y-111908000D02*
X102834064Y-111908000D01*
%TO.C,R25*%
X110130000Y-112049936D02*
X110130000Y-113254064D01*
X108310000Y-112049936D02*
X108310000Y-113254064D01*
%TO.C,R24*%
X110130000Y-105185936D02*
X110130000Y-106390064D01*
X108310000Y-105185936D02*
X108310000Y-106390064D01*
%TO.C,R23*%
X99928000Y-99532064D02*
X99928000Y-98327936D01*
X101748000Y-99532064D02*
X101748000Y-98327936D01*
%TO.C,R21*%
X87524000Y-111795936D02*
X87524000Y-113000064D01*
X85704000Y-111795936D02*
X85704000Y-113000064D01*
%TO.C,R20*%
X161260064Y-114956000D02*
X160055936Y-114956000D01*
X161260064Y-113136000D02*
X160055936Y-113136000D01*
%TO.C,R19*%
X161254064Y-105558000D02*
X160049936Y-105558000D01*
X161254064Y-103738000D02*
X160049936Y-103738000D01*
%TO.C,R18*%
X161260064Y-100224000D02*
X160055936Y-100224000D01*
X161260064Y-98404000D02*
X160055936Y-98404000D01*
%TO.C,R17*%
X161508064Y-89556000D02*
X160303936Y-89556000D01*
X161508064Y-87736000D02*
X160303936Y-87736000D01*
%TO.C,R16*%
X161638064Y-84730000D02*
X160433936Y-84730000D01*
X161638064Y-82910000D02*
X160433936Y-82910000D01*
%TO.C,R15*%
X161384064Y-74062000D02*
X160179936Y-74062000D01*
X161384064Y-72242000D02*
X160179936Y-72242000D01*
%TO.C,R14*%
X179472000Y-78515936D02*
X179472000Y-79720064D01*
X177652000Y-78515936D02*
X177652000Y-79720064D01*
%TO.C,R13*%
X179472000Y-108741936D02*
X179472000Y-109946064D01*
X177652000Y-108741936D02*
X177652000Y-109946064D01*
%TO.C,R12*%
X178964000Y-94015936D02*
X178964000Y-95220064D01*
X177144000Y-94015936D02*
X177144000Y-95220064D01*
%TO.C,R11*%
X93324000Y-91664064D02*
X93324000Y-90459936D01*
X95144000Y-91664064D02*
X95144000Y-90459936D01*
%TO.C,R10*%
X72030000Y-111541936D02*
X72030000Y-112746064D01*
X70210000Y-111541936D02*
X70210000Y-112746064D01*
%TO.C,R9*%
X79142000Y-111789936D02*
X79142000Y-112994064D01*
X77322000Y-111789936D02*
X77322000Y-112994064D01*
%TO.C,R8*%
X79142000Y-104931936D02*
X79142000Y-106136064D01*
X77322000Y-104931936D02*
X77322000Y-106136064D01*
%TO.C,R7*%
X85958000Y-71338064D02*
X85958000Y-70133936D01*
X87778000Y-71338064D02*
X87778000Y-70133936D01*
%TO.C,R6*%
X76856000Y-70387936D02*
X76856000Y-71592064D01*
X75036000Y-70387936D02*
X75036000Y-71592064D01*
%TO.C,R5*%
X63198000Y-94408000D02*
X72438000Y-94408000D01*
X72438000Y-94408000D02*
X72438000Y-69168000D01*
X72438000Y-69168000D02*
X63198000Y-69168000D01*
X63198000Y-69168000D02*
X63198000Y-94408000D01*
X67818000Y-95588000D02*
X67818000Y-94408000D01*
X67818000Y-67988000D02*
X67818000Y-69168000D01*
%TO.C,R4*%
X86762000Y-98333936D02*
X86762000Y-99538064D01*
X84942000Y-98333936D02*
X84942000Y-99538064D01*
%TO.C,R3*%
X79142000Y-98581936D02*
X79142000Y-99786064D01*
X77322000Y-98581936D02*
X77322000Y-99786064D01*
%TO.C,R2*%
X94204064Y-70506000D02*
X92999936Y-70506000D01*
X94204064Y-68686000D02*
X92999936Y-68686000D01*
%TO.C,R1*%
X101748000Y-59973936D02*
X101748000Y-61178064D01*
X99928000Y-59973936D02*
X99928000Y-61178064D01*
%TO.C,Q1*%
X80520000Y-69286000D02*
X80520000Y-70216000D01*
X80520000Y-72446000D02*
X80520000Y-71516000D01*
X80520000Y-72446000D02*
X82680000Y-72446000D01*
X80520000Y-69286000D02*
X81980000Y-69286000D01*
%TO.C,L6*%
X163253000Y-110767000D02*
X163253000Y-107987000D01*
X158303000Y-110767000D02*
X158303000Y-107987000D01*
X158303000Y-107987000D02*
X163253000Y-107987000D01*
X163253000Y-110767000D02*
X158303000Y-110767000D01*
%TO.C,L4*%
X163231000Y-95527000D02*
X163231000Y-92747000D01*
X158281000Y-95527000D02*
X158281000Y-92747000D01*
X158281000Y-92747000D02*
X163231000Y-92747000D01*
X163231000Y-95527000D02*
X158281000Y-95527000D01*
%TO.C,L2*%
X163485000Y-79779000D02*
X163485000Y-76999000D01*
X158535000Y-79779000D02*
X158535000Y-76999000D01*
X158535000Y-76999000D02*
X163485000Y-76999000D01*
X163485000Y-79779000D02*
X158535000Y-79779000D01*
%TO.C,L1*%
X86135936Y-58272000D02*
X87340064Y-58272000D01*
X86135936Y-60092000D02*
X87340064Y-60092000D01*
%TO.C,J11*%
X129600000Y-77022000D02*
X129600000Y-74362000D01*
X127000000Y-77022000D02*
X129600000Y-77022000D01*
X127000000Y-74362000D02*
X129600000Y-74362000D01*
X127000000Y-77022000D02*
X127000000Y-74362000D01*
X125730000Y-77022000D02*
X124400000Y-77022000D01*
X124400000Y-77022000D02*
X124400000Y-75692000D01*
%TO.C,J10*%
X76902000Y-82610000D02*
X79562000Y-82610000D01*
X76902000Y-80010000D02*
X76902000Y-82610000D01*
X79562000Y-80010000D02*
X79562000Y-82610000D01*
X76902000Y-80010000D02*
X79562000Y-80010000D01*
X76902000Y-78740000D02*
X76902000Y-77410000D01*
X76902000Y-77410000D02*
X78232000Y-77410000D01*
%TO.C,J9*%
X115256000Y-114614000D02*
X117916000Y-114614000D01*
X115256000Y-112014000D02*
X115256000Y-114614000D01*
X117916000Y-112014000D02*
X117916000Y-114614000D01*
X115256000Y-112014000D02*
X117916000Y-112014000D01*
X115256000Y-110744000D02*
X115256000Y-109414000D01*
X115256000Y-109414000D02*
X116586000Y-109414000D01*
%TO.C,J8*%
X66354000Y-102810000D02*
X63694000Y-102810000D01*
X66354000Y-105410000D02*
X66354000Y-102810000D01*
X63694000Y-105410000D02*
X63694000Y-102810000D01*
X66354000Y-105410000D02*
X63694000Y-105410000D01*
X66354000Y-106680000D02*
X66354000Y-108010000D01*
X66354000Y-108010000D02*
X65024000Y-108010000D01*
%TO.C,J7*%
X93158000Y-82356000D02*
X95818000Y-82356000D01*
X93158000Y-79756000D02*
X93158000Y-82356000D01*
X95818000Y-79756000D02*
X95818000Y-82356000D01*
X93158000Y-79756000D02*
X95818000Y-79756000D01*
X93158000Y-78486000D02*
X93158000Y-77156000D01*
X93158000Y-77156000D02*
X94488000Y-77156000D01*
%TO.C,J6*%
X84522000Y-82356000D02*
X87182000Y-82356000D01*
X84522000Y-79756000D02*
X84522000Y-82356000D01*
X87182000Y-79756000D02*
X87182000Y-82356000D01*
X84522000Y-79756000D02*
X87182000Y-79756000D01*
X84522000Y-78486000D02*
X84522000Y-77156000D01*
X84522000Y-77156000D02*
X85852000Y-77156000D01*
%TO.C,J5*%
X151324000Y-111312000D02*
X153984000Y-111312000D01*
X151324000Y-108712000D02*
X151324000Y-111312000D01*
X153984000Y-108712000D02*
X153984000Y-111312000D01*
X151324000Y-108712000D02*
X153984000Y-108712000D01*
X151324000Y-107442000D02*
X151324000Y-106112000D01*
X151324000Y-106112000D02*
X152654000Y-106112000D01*
%TO.C,J4*%
X151324000Y-99628000D02*
X153984000Y-99628000D01*
X151324000Y-97028000D02*
X151324000Y-99628000D01*
X153984000Y-97028000D02*
X153984000Y-99628000D01*
X151324000Y-97028000D02*
X153984000Y-97028000D01*
X151324000Y-95758000D02*
X151324000Y-94428000D01*
X151324000Y-94428000D02*
X152654000Y-94428000D01*
%TO.C,J3*%
X154238000Y-80204000D02*
X151578000Y-80204000D01*
X154238000Y-82804000D02*
X154238000Y-80204000D01*
X151578000Y-82804000D02*
X151578000Y-80204000D01*
X154238000Y-82804000D02*
X151578000Y-82804000D01*
X154238000Y-84074000D02*
X154238000Y-85404000D01*
X154238000Y-85404000D02*
X152908000Y-85404000D01*
%TO.C,J2*%
X159318000Y-62036000D02*
X159318000Y-59376000D01*
X149098000Y-62036000D02*
X159318000Y-62036000D01*
X149098000Y-59376000D02*
X159318000Y-59376000D01*
X149098000Y-62036000D02*
X149098000Y-59376000D01*
X147828000Y-62036000D02*
X146498000Y-62036000D01*
X146498000Y-62036000D02*
X146498000Y-60706000D01*
%TO.C,D9*%
X136388000Y-111418000D02*
X136388000Y-113118000D01*
X136388000Y-113118000D02*
X138938000Y-113118000D01*
X136388000Y-111418000D02*
X138938000Y-111418000D01*
%TO.C,D8*%
X136422000Y-105322000D02*
X136422000Y-107022000D01*
X136422000Y-107022000D02*
X138972000Y-107022000D01*
X136422000Y-105322000D02*
X138972000Y-105322000D01*
%TO.C,D7*%
X136422000Y-92622000D02*
X136422000Y-94322000D01*
X136422000Y-94322000D02*
X138972000Y-94322000D01*
X136422000Y-92622000D02*
X138972000Y-92622000D01*
%TO.C,D6*%
X136456000Y-98718000D02*
X136456000Y-100418000D01*
X136456000Y-100418000D02*
X139006000Y-100418000D01*
X136456000Y-98718000D02*
X139006000Y-98718000D01*
%TO.C,D5*%
X136422000Y-84748000D02*
X136422000Y-86448000D01*
X136422000Y-86448000D02*
X138972000Y-86448000D01*
X136422000Y-84748000D02*
X138972000Y-84748000D01*
%TO.C,D4*%
X136388000Y-78906000D02*
X136388000Y-80606000D01*
X136388000Y-80606000D02*
X138938000Y-80606000D01*
X136388000Y-78906000D02*
X138938000Y-78906000D01*
%TO.C,D3*%
X99703000Y-89456000D02*
X99703000Y-93341000D01*
X99703000Y-93341000D02*
X101973000Y-93341000D01*
X101973000Y-93341000D02*
X101973000Y-89456000D01*
%TO.C,D2*%
X74811000Y-62154000D02*
X74811000Y-66039000D01*
X74811000Y-66039000D02*
X77081000Y-66039000D01*
X77081000Y-66039000D02*
X77081000Y-62154000D01*
%TO.C,C17*%
X99928000Y-80482064D02*
X99928000Y-79277936D01*
X101748000Y-80482064D02*
X101748000Y-79277936D01*
%TO.C,C16*%
X86265936Y-62844000D02*
X87470064Y-62844000D01*
X86265936Y-64664000D02*
X87470064Y-64664000D01*
%TO.C,C15*%
X93501936Y-58272000D02*
X94706064Y-58272000D01*
X93501936Y-60092000D02*
X94706064Y-60092000D01*
%TO.C,C14*%
X99928000Y-69814064D02*
X99928000Y-68609936D01*
X101748000Y-69814064D02*
X101748000Y-68609936D01*
%TO.C,C13*%
X176240064Y-115210000D02*
X175035936Y-115210000D01*
X176240064Y-113390000D02*
X175035936Y-113390000D01*
%TO.C,C12*%
X175035936Y-103738000D02*
X176240064Y-103738000D01*
X175035936Y-105558000D02*
X176240064Y-105558000D01*
%TO.C,C11*%
X175986064Y-100478000D02*
X174781936Y-100478000D01*
X175986064Y-98658000D02*
X174781936Y-98658000D01*
%TO.C,C10*%
X174781936Y-88498000D02*
X175986064Y-88498000D01*
X174781936Y-90318000D02*
X175986064Y-90318000D01*
%TO.C,C9*%
X175986064Y-84730000D02*
X174781936Y-84730000D01*
X175986064Y-82910000D02*
X174781936Y-82910000D01*
%TO.C,C8*%
X174781936Y-73004000D02*
X175986064Y-73004000D01*
X174781936Y-74824000D02*
X175986064Y-74824000D01*
%TO.C,C7*%
X93324000Y-106266064D02*
X93324000Y-105061936D01*
X95144000Y-106266064D02*
X95144000Y-105061936D01*
%TO.C,C6*%
X95144000Y-111789936D02*
X95144000Y-112994064D01*
X93324000Y-111789936D02*
X93324000Y-112994064D01*
%TO.C,C5*%
X109060064Y-61362000D02*
X107855936Y-61362000D01*
X109060064Y-59542000D02*
X107855936Y-59542000D01*
%TO.C,C4*%
X118842064Y-61362000D02*
X117637936Y-61362000D01*
X118842064Y-59542000D02*
X117637936Y-59542000D01*
%TO.C,C3*%
X72030000Y-104937936D02*
X72030000Y-106142064D01*
X70210000Y-104937936D02*
X70210000Y-106142064D01*
%TO.C,C2*%
X148365936Y-65384000D02*
X149570064Y-65384000D01*
X148365936Y-67204000D02*
X149570064Y-67204000D01*
%TO.C,C1*%
X81936000Y-63027936D02*
X81936000Y-64232064D01*
X80116000Y-63027936D02*
X80116000Y-64232064D01*
%TD*%
%TO.C,H4*%
D10*
X187198095Y-113092380D02*
X187198095Y-112092380D01*
X187198095Y-112568571D02*
X187769523Y-112568571D01*
X187769523Y-113092380D02*
X187769523Y-112092380D01*
X188674285Y-112425714D02*
X188674285Y-113092380D01*
X188436190Y-112044761D02*
X188198095Y-112759047D01*
X188817142Y-112759047D01*
%TO.C,H3*%
X60198095Y-113092380D02*
X60198095Y-112092380D01*
X60198095Y-112568571D02*
X60769523Y-112568571D01*
X60769523Y-113092380D02*
X60769523Y-112092380D01*
X61150476Y-112092380D02*
X61769523Y-112092380D01*
X61436190Y-112473333D01*
X61579047Y-112473333D01*
X61674285Y-112520952D01*
X61721904Y-112568571D01*
X61769523Y-112663809D01*
X61769523Y-112901904D01*
X61721904Y-112997142D01*
X61674285Y-113044761D01*
X61579047Y-113092380D01*
X61293333Y-113092380D01*
X61198095Y-113044761D01*
X61150476Y-112997142D01*
%TO.C,H2*%
X60198095Y-62292380D02*
X60198095Y-61292380D01*
X60198095Y-61768571D02*
X60769523Y-61768571D01*
X60769523Y-62292380D02*
X60769523Y-61292380D01*
X61198095Y-61387619D02*
X61245714Y-61340000D01*
X61340952Y-61292380D01*
X61579047Y-61292380D01*
X61674285Y-61340000D01*
X61721904Y-61387619D01*
X61769523Y-61482857D01*
X61769523Y-61578095D01*
X61721904Y-61720952D01*
X61150476Y-62292380D01*
X61769523Y-62292380D01*
%TO.C,H1*%
X187198095Y-52132380D02*
X187198095Y-51132380D01*
X187198095Y-51608571D02*
X187769523Y-51608571D01*
X187769523Y-52132380D02*
X187769523Y-51132380D01*
X188769523Y-52132380D02*
X188198095Y-52132380D01*
X188483809Y-52132380D02*
X188483809Y-51132380D01*
X188388571Y-51275238D01*
X188293333Y-51370476D01*
X188198095Y-51418095D01*
%TO.C,J1*%
X61252380Y-58133333D02*
X61966666Y-58133333D01*
X62109523Y-58180952D01*
X62204761Y-58276190D01*
X62252380Y-58419047D01*
X62252380Y-58514285D01*
X62252380Y-57133333D02*
X62252380Y-57704761D01*
X62252380Y-57419047D02*
X61252380Y-57419047D01*
X61395238Y-57514285D01*
X61490476Y-57609523D01*
X61538095Y-57704761D01*
%TO.C,U8*%
X184822380Y-110297904D02*
X185631904Y-110297904D01*
X185727142Y-110250285D01*
X185774761Y-110202666D01*
X185822380Y-110107428D01*
X185822380Y-109916952D01*
X185774761Y-109821714D01*
X185727142Y-109774095D01*
X185631904Y-109726476D01*
X184822380Y-109726476D01*
X185250952Y-109107428D02*
X185203333Y-109202666D01*
X185155714Y-109250285D01*
X185060476Y-109297904D01*
X185012857Y-109297904D01*
X184917619Y-109250285D01*
X184870000Y-109202666D01*
X184822380Y-109107428D01*
X184822380Y-108916952D01*
X184870000Y-108821714D01*
X184917619Y-108774095D01*
X185012857Y-108726476D01*
X185060476Y-108726476D01*
X185155714Y-108774095D01*
X185203333Y-108821714D01*
X185250952Y-108916952D01*
X185250952Y-109107428D01*
X185298571Y-109202666D01*
X185346190Y-109250285D01*
X185441428Y-109297904D01*
X185631904Y-109297904D01*
X185727142Y-109250285D01*
X185774761Y-109202666D01*
X185822380Y-109107428D01*
X185822380Y-108916952D01*
X185774761Y-108821714D01*
X185727142Y-108774095D01*
X185631904Y-108726476D01*
X185441428Y-108726476D01*
X185346190Y-108774095D01*
X185298571Y-108821714D01*
X185250952Y-108916952D01*
%TO.C,U6*%
X184822380Y-80071904D02*
X185631904Y-80071904D01*
X185727142Y-80024285D01*
X185774761Y-79976666D01*
X185822380Y-79881428D01*
X185822380Y-79690952D01*
X185774761Y-79595714D01*
X185727142Y-79548095D01*
X185631904Y-79500476D01*
X184822380Y-79500476D01*
X184822380Y-78595714D02*
X184822380Y-78786190D01*
X184870000Y-78881428D01*
X184917619Y-78929047D01*
X185060476Y-79024285D01*
X185250952Y-79071904D01*
X185631904Y-79071904D01*
X185727142Y-79024285D01*
X185774761Y-78976666D01*
X185822380Y-78881428D01*
X185822380Y-78690952D01*
X185774761Y-78595714D01*
X185727142Y-78548095D01*
X185631904Y-78500476D01*
X185393809Y-78500476D01*
X185298571Y-78548095D01*
X185250952Y-78595714D01*
X185203333Y-78690952D01*
X185203333Y-78881428D01*
X185250952Y-78976666D01*
X185298571Y-79024285D01*
X185393809Y-79071904D01*
%TO.C,U7*%
X184822380Y-95565904D02*
X185631904Y-95565904D01*
X185727142Y-95518285D01*
X185774761Y-95470666D01*
X185822380Y-95375428D01*
X185822380Y-95184952D01*
X185774761Y-95089714D01*
X185727142Y-95042095D01*
X185631904Y-94994476D01*
X184822380Y-94994476D01*
X184822380Y-94613523D02*
X184822380Y-93946857D01*
X185822380Y-94375428D01*
%TO.C,L5*%
X171537333Y-91892380D02*
X171061142Y-91892380D01*
X171061142Y-90892380D01*
X172346857Y-90892380D02*
X171870666Y-90892380D01*
X171823047Y-91368571D01*
X171870666Y-91320952D01*
X171965904Y-91273333D01*
X172204000Y-91273333D01*
X172299238Y-91320952D01*
X172346857Y-91368571D01*
X172394476Y-91463809D01*
X172394476Y-91701904D01*
X172346857Y-91797142D01*
X172299238Y-91844761D01*
X172204000Y-91892380D01*
X171965904Y-91892380D01*
X171870666Y-91844761D01*
X171823047Y-91797142D01*
X175482285Y-92655619D02*
X175529904Y-92608000D01*
X175625142Y-92560380D01*
X175863238Y-92560380D01*
X175958476Y-92608000D01*
X176006095Y-92655619D01*
X176053714Y-92750857D01*
X176053714Y-92846095D01*
X176006095Y-92988952D01*
X175434666Y-93560380D01*
X176053714Y-93560380D01*
X176079714Y-96290380D02*
X175508285Y-96290380D01*
X175794000Y-96290380D02*
X175794000Y-95290380D01*
X175698761Y-95433238D01*
X175603523Y-95528476D01*
X175508285Y-95576095D01*
%TO.C,L7*%
X171791333Y-107132380D02*
X171315142Y-107132380D01*
X171315142Y-106132380D01*
X172029428Y-106132380D02*
X172696095Y-106132380D01*
X172267523Y-107132380D01*
X175852285Y-107641619D02*
X175899904Y-107594000D01*
X175995142Y-107546380D01*
X176233238Y-107546380D01*
X176328476Y-107594000D01*
X176376095Y-107641619D01*
X176423714Y-107736857D01*
X176423714Y-107832095D01*
X176376095Y-107974952D01*
X175804666Y-108546380D01*
X176423714Y-108546380D01*
X176333714Y-111276380D02*
X175762285Y-111276380D01*
X176048000Y-111276380D02*
X176048000Y-110276380D01*
X175952761Y-110419238D01*
X175857523Y-110514476D01*
X175762285Y-110562095D01*
%TO.C,L3*%
X171537333Y-76144380D02*
X171061142Y-76144380D01*
X171061142Y-75144380D01*
X171775428Y-75144380D02*
X172394476Y-75144380D01*
X172061142Y-75525333D01*
X172204000Y-75525333D01*
X172299238Y-75572952D01*
X172346857Y-75620571D01*
X172394476Y-75715809D01*
X172394476Y-75953904D01*
X172346857Y-76049142D01*
X172299238Y-76096761D01*
X172204000Y-76144380D01*
X171918285Y-76144380D01*
X171823047Y-76096761D01*
X171775428Y-76049142D01*
X175482285Y-76907619D02*
X175529904Y-76860000D01*
X175625142Y-76812380D01*
X175863238Y-76812380D01*
X175958476Y-76860000D01*
X176006095Y-76907619D01*
X176053714Y-77002857D01*
X176053714Y-77098095D01*
X176006095Y-77240952D01*
X175434666Y-77812380D01*
X176053714Y-77812380D01*
X176079714Y-80542380D02*
X175508285Y-80542380D01*
X175794000Y-80542380D02*
X175794000Y-79542380D01*
X175698761Y-79685238D01*
X175603523Y-79780476D01*
X175508285Y-79828095D01*
%TO.C,R22*%
X92406380Y-99702857D02*
X91930190Y-100036190D01*
X92406380Y-100274285D02*
X91406380Y-100274285D01*
X91406380Y-99893333D01*
X91454000Y-99798095D01*
X91501619Y-99750476D01*
X91596857Y-99702857D01*
X91739714Y-99702857D01*
X91834952Y-99750476D01*
X91882571Y-99798095D01*
X91930190Y-99893333D01*
X91930190Y-100274285D01*
X91501619Y-99321904D02*
X91454000Y-99274285D01*
X91406380Y-99179047D01*
X91406380Y-98940952D01*
X91454000Y-98845714D01*
X91501619Y-98798095D01*
X91596857Y-98750476D01*
X91692095Y-98750476D01*
X91834952Y-98798095D01*
X92406380Y-99369523D01*
X92406380Y-98750476D01*
X91501619Y-98369523D02*
X91454000Y-98321904D01*
X91406380Y-98226666D01*
X91406380Y-97988571D01*
X91454000Y-97893333D01*
X91501619Y-97845714D01*
X91596857Y-97798095D01*
X91692095Y-97798095D01*
X91834952Y-97845714D01*
X92406380Y-98417142D01*
X92406380Y-97798095D01*
%TO.C,U5*%
X101236095Y-101896380D02*
X101236095Y-102705904D01*
X101283714Y-102801142D01*
X101331333Y-102848761D01*
X101426571Y-102896380D01*
X101617047Y-102896380D01*
X101712285Y-102848761D01*
X101759904Y-102801142D01*
X101807523Y-102705904D01*
X101807523Y-101896380D01*
X102759904Y-101896380D02*
X102283714Y-101896380D01*
X102236095Y-102372571D01*
X102283714Y-102324952D01*
X102378952Y-102277333D01*
X102617047Y-102277333D01*
X102712285Y-102324952D01*
X102759904Y-102372571D01*
X102807523Y-102467809D01*
X102807523Y-102705904D01*
X102759904Y-102801142D01*
X102712285Y-102848761D01*
X102617047Y-102896380D01*
X102378952Y-102896380D01*
X102283714Y-102848761D01*
X102236095Y-102801142D01*
%TO.C,J12*%
X122852380Y-90471523D02*
X123566666Y-90471523D01*
X123709523Y-90519142D01*
X123804761Y-90614380D01*
X123852380Y-90757238D01*
X123852380Y-90852476D01*
X123852380Y-89471523D02*
X123852380Y-90042952D01*
X123852380Y-89757238D02*
X122852380Y-89757238D01*
X122995238Y-89852476D01*
X123090476Y-89947714D01*
X123138095Y-90042952D01*
X122947619Y-89090571D02*
X122900000Y-89042952D01*
X122852380Y-88947714D01*
X122852380Y-88709619D01*
X122900000Y-88614380D01*
X122947619Y-88566761D01*
X123042857Y-88519142D01*
X123138095Y-88519142D01*
X123280952Y-88566761D01*
X123852380Y-89138190D01*
X123852380Y-88519142D01*
%TO.C,U4*%
X122188380Y-98043904D02*
X122997904Y-98043904D01*
X123093142Y-97996285D01*
X123140761Y-97948666D01*
X123188380Y-97853428D01*
X123188380Y-97662952D01*
X123140761Y-97567714D01*
X123093142Y-97520095D01*
X122997904Y-97472476D01*
X122188380Y-97472476D01*
X122521714Y-96567714D02*
X123188380Y-96567714D01*
X122140761Y-96805809D02*
X122855047Y-97043904D01*
X122855047Y-96424857D01*
%TO.C,Y1*%
X112707809Y-64269190D02*
X112707809Y-64745380D01*
X112374476Y-63745380D02*
X112707809Y-64269190D01*
X113041142Y-63745380D01*
X113898285Y-64745380D02*
X113326857Y-64745380D01*
X113612571Y-64745380D02*
X113612571Y-63745380D01*
X113517333Y-63888238D01*
X113422095Y-63983476D01*
X113326857Y-64031095D01*
%TO.C,U3*%
X127192095Y-78082380D02*
X127192095Y-78891904D01*
X127239714Y-78987142D01*
X127287333Y-79034761D01*
X127382571Y-79082380D01*
X127573047Y-79082380D01*
X127668285Y-79034761D01*
X127715904Y-78987142D01*
X127763523Y-78891904D01*
X127763523Y-78082380D01*
X128144476Y-78082380D02*
X128763523Y-78082380D01*
X128430190Y-78463333D01*
X128573047Y-78463333D01*
X128668285Y-78510952D01*
X128715904Y-78558571D01*
X128763523Y-78653809D01*
X128763523Y-78891904D01*
X128715904Y-78987142D01*
X128668285Y-79034761D01*
X128573047Y-79082380D01*
X128287333Y-79082380D01*
X128192095Y-79034761D01*
X128144476Y-78987142D01*
%TO.C,U2*%
X93166095Y-61814380D02*
X93166095Y-62623904D01*
X93213714Y-62719142D01*
X93261333Y-62766761D01*
X93356571Y-62814380D01*
X93547047Y-62814380D01*
X93642285Y-62766761D01*
X93689904Y-62719142D01*
X93737523Y-62623904D01*
X93737523Y-61814380D01*
X94166095Y-61909619D02*
X94213714Y-61862000D01*
X94308952Y-61814380D01*
X94547047Y-61814380D01*
X94642285Y-61862000D01*
X94689904Y-61909619D01*
X94737523Y-62004857D01*
X94737523Y-62100095D01*
X94689904Y-62242952D01*
X94118476Y-62814380D01*
X94737523Y-62814380D01*
%TO.C,U1*%
X104582380Y-88441904D02*
X105391904Y-88441904D01*
X105487142Y-88394285D01*
X105534761Y-88346666D01*
X105582380Y-88251428D01*
X105582380Y-88060952D01*
X105534761Y-87965714D01*
X105487142Y-87918095D01*
X105391904Y-87870476D01*
X104582380Y-87870476D01*
X105582380Y-86870476D02*
X105582380Y-87441904D01*
X105582380Y-87156190D02*
X104582380Y-87156190D01*
X104725238Y-87251428D01*
X104820476Y-87346666D01*
X104868095Y-87441904D01*
X116109714Y-81132380D02*
X115538285Y-81132380D01*
X115824000Y-81132380D02*
X115824000Y-80132380D01*
X115728761Y-80275238D01*
X115633523Y-80370476D01*
X115538285Y-80418095D01*
%TO.C,TH2*%
X82702380Y-91715714D02*
X82702380Y-91144285D01*
X83702380Y-91430000D02*
X82702380Y-91430000D01*
X83702380Y-90810952D02*
X82702380Y-90810952D01*
X83178571Y-90810952D02*
X83178571Y-90239523D01*
X83702380Y-90239523D02*
X82702380Y-90239523D01*
X82797619Y-89810952D02*
X82750000Y-89763333D01*
X82702380Y-89668095D01*
X82702380Y-89430000D01*
X82750000Y-89334761D01*
X82797619Y-89287142D01*
X82892857Y-89239523D01*
X82988095Y-89239523D01*
X83130952Y-89287142D01*
X83702380Y-89858571D01*
X83702380Y-89239523D01*
%TO.C,TH1*%
X75032380Y-91855714D02*
X75032380Y-91284285D01*
X76032380Y-91570000D02*
X75032380Y-91570000D01*
X76032380Y-90950952D02*
X75032380Y-90950952D01*
X75508571Y-90950952D02*
X75508571Y-90379523D01*
X76032380Y-90379523D02*
X75032380Y-90379523D01*
X76032380Y-89379523D02*
X76032380Y-89950952D01*
X76032380Y-89665238D02*
X75032380Y-89665238D01*
X75175238Y-89760476D01*
X75270476Y-89855714D01*
X75318095Y-89950952D01*
%TO.C,SW1*%
X135774666Y-59110761D02*
X135917523Y-59158380D01*
X136155619Y-59158380D01*
X136250857Y-59110761D01*
X136298476Y-59063142D01*
X136346095Y-58967904D01*
X136346095Y-58872666D01*
X136298476Y-58777428D01*
X136250857Y-58729809D01*
X136155619Y-58682190D01*
X135965142Y-58634571D01*
X135869904Y-58586952D01*
X135822285Y-58539333D01*
X135774666Y-58444095D01*
X135774666Y-58348857D01*
X135822285Y-58253619D01*
X135869904Y-58206000D01*
X135965142Y-58158380D01*
X136203238Y-58158380D01*
X136346095Y-58206000D01*
X136679428Y-58158380D02*
X136917523Y-59158380D01*
X137108000Y-58444095D01*
X137298476Y-59158380D01*
X137536571Y-58158380D01*
X138441333Y-59158380D02*
X137869904Y-59158380D01*
X138155619Y-59158380D02*
X138155619Y-58158380D01*
X138060380Y-58301238D01*
X137965142Y-58396476D01*
X137869904Y-58444095D01*
%TO.C,R38*%
X144645142Y-110942380D02*
X144311809Y-110466190D01*
X144073714Y-110942380D02*
X144073714Y-109942380D01*
X144454666Y-109942380D01*
X144549904Y-109990000D01*
X144597523Y-110037619D01*
X144645142Y-110132857D01*
X144645142Y-110275714D01*
X144597523Y-110370952D01*
X144549904Y-110418571D01*
X144454666Y-110466190D01*
X144073714Y-110466190D01*
X144978476Y-109942380D02*
X145597523Y-109942380D01*
X145264190Y-110323333D01*
X145407047Y-110323333D01*
X145502285Y-110370952D01*
X145549904Y-110418571D01*
X145597523Y-110513809D01*
X145597523Y-110751904D01*
X145549904Y-110847142D01*
X145502285Y-110894761D01*
X145407047Y-110942380D01*
X145121333Y-110942380D01*
X145026095Y-110894761D01*
X144978476Y-110847142D01*
X146168952Y-110370952D02*
X146073714Y-110323333D01*
X146026095Y-110275714D01*
X145978476Y-110180476D01*
X145978476Y-110132857D01*
X146026095Y-110037619D01*
X146073714Y-109990000D01*
X146168952Y-109942380D01*
X146359428Y-109942380D01*
X146454666Y-109990000D01*
X146502285Y-110037619D01*
X146549904Y-110132857D01*
X146549904Y-110180476D01*
X146502285Y-110275714D01*
X146454666Y-110323333D01*
X146359428Y-110370952D01*
X146168952Y-110370952D01*
X146073714Y-110418571D01*
X146026095Y-110466190D01*
X145978476Y-110561428D01*
X145978476Y-110751904D01*
X146026095Y-110847142D01*
X146073714Y-110894761D01*
X146168952Y-110942380D01*
X146359428Y-110942380D01*
X146454666Y-110894761D01*
X146502285Y-110847142D01*
X146549904Y-110751904D01*
X146549904Y-110561428D01*
X146502285Y-110466190D01*
X146454666Y-110418571D01*
X146359428Y-110370952D01*
%TO.C,R37*%
X144651142Y-104846380D02*
X144317809Y-104370190D01*
X144079714Y-104846380D02*
X144079714Y-103846380D01*
X144460666Y-103846380D01*
X144555904Y-103894000D01*
X144603523Y-103941619D01*
X144651142Y-104036857D01*
X144651142Y-104179714D01*
X144603523Y-104274952D01*
X144555904Y-104322571D01*
X144460666Y-104370190D01*
X144079714Y-104370190D01*
X144984476Y-103846380D02*
X145603523Y-103846380D01*
X145270190Y-104227333D01*
X145413047Y-104227333D01*
X145508285Y-104274952D01*
X145555904Y-104322571D01*
X145603523Y-104417809D01*
X145603523Y-104655904D01*
X145555904Y-104751142D01*
X145508285Y-104798761D01*
X145413047Y-104846380D01*
X145127333Y-104846380D01*
X145032095Y-104798761D01*
X144984476Y-104751142D01*
X145936857Y-103846380D02*
X146603523Y-103846380D01*
X146174952Y-104846380D01*
%TO.C,R36*%
X144769142Y-92146380D02*
X144435809Y-91670190D01*
X144197714Y-92146380D02*
X144197714Y-91146380D01*
X144578666Y-91146380D01*
X144673904Y-91194000D01*
X144721523Y-91241619D01*
X144769142Y-91336857D01*
X144769142Y-91479714D01*
X144721523Y-91574952D01*
X144673904Y-91622571D01*
X144578666Y-91670190D01*
X144197714Y-91670190D01*
X145102476Y-91146380D02*
X145721523Y-91146380D01*
X145388190Y-91527333D01*
X145531047Y-91527333D01*
X145626285Y-91574952D01*
X145673904Y-91622571D01*
X145721523Y-91717809D01*
X145721523Y-91955904D01*
X145673904Y-92051142D01*
X145626285Y-92098761D01*
X145531047Y-92146380D01*
X145245333Y-92146380D01*
X145150095Y-92098761D01*
X145102476Y-92051142D01*
X146578666Y-91146380D02*
X146388190Y-91146380D01*
X146292952Y-91194000D01*
X146245333Y-91241619D01*
X146150095Y-91384476D01*
X146102476Y-91574952D01*
X146102476Y-91955904D01*
X146150095Y-92051142D01*
X146197714Y-92098761D01*
X146292952Y-92146380D01*
X146483428Y-92146380D01*
X146578666Y-92098761D01*
X146626285Y-92051142D01*
X146673904Y-91955904D01*
X146673904Y-91717809D01*
X146626285Y-91622571D01*
X146578666Y-91574952D01*
X146483428Y-91527333D01*
X146292952Y-91527333D01*
X146197714Y-91574952D01*
X146150095Y-91622571D01*
X146102476Y-91717809D01*
%TO.C,R35*%
X144645142Y-98242380D02*
X144311809Y-97766190D01*
X144073714Y-98242380D02*
X144073714Y-97242380D01*
X144454666Y-97242380D01*
X144549904Y-97290000D01*
X144597523Y-97337619D01*
X144645142Y-97432857D01*
X144645142Y-97575714D01*
X144597523Y-97670952D01*
X144549904Y-97718571D01*
X144454666Y-97766190D01*
X144073714Y-97766190D01*
X144978476Y-97242380D02*
X145597523Y-97242380D01*
X145264190Y-97623333D01*
X145407047Y-97623333D01*
X145502285Y-97670952D01*
X145549904Y-97718571D01*
X145597523Y-97813809D01*
X145597523Y-98051904D01*
X145549904Y-98147142D01*
X145502285Y-98194761D01*
X145407047Y-98242380D01*
X145121333Y-98242380D01*
X145026095Y-98194761D01*
X144978476Y-98147142D01*
X146502285Y-97242380D02*
X146026095Y-97242380D01*
X145978476Y-97718571D01*
X146026095Y-97670952D01*
X146121333Y-97623333D01*
X146359428Y-97623333D01*
X146454666Y-97670952D01*
X146502285Y-97718571D01*
X146549904Y-97813809D01*
X146549904Y-98051904D01*
X146502285Y-98147142D01*
X146454666Y-98194761D01*
X146359428Y-98242380D01*
X146121333Y-98242380D01*
X146026095Y-98194761D01*
X145978476Y-98147142D01*
%TO.C,R34*%
X123642380Y-106560857D02*
X123166190Y-106894190D01*
X123642380Y-107132285D02*
X122642380Y-107132285D01*
X122642380Y-106751333D01*
X122690000Y-106656095D01*
X122737619Y-106608476D01*
X122832857Y-106560857D01*
X122975714Y-106560857D01*
X123070952Y-106608476D01*
X123118571Y-106656095D01*
X123166190Y-106751333D01*
X123166190Y-107132285D01*
X122642380Y-106227523D02*
X122642380Y-105608476D01*
X123023333Y-105941809D01*
X123023333Y-105798952D01*
X123070952Y-105703714D01*
X123118571Y-105656095D01*
X123213809Y-105608476D01*
X123451904Y-105608476D01*
X123547142Y-105656095D01*
X123594761Y-105703714D01*
X123642380Y-105798952D01*
X123642380Y-106084666D01*
X123594761Y-106179904D01*
X123547142Y-106227523D01*
X122975714Y-104751333D02*
X123642380Y-104751333D01*
X122594761Y-104989428D02*
X123309047Y-105227523D01*
X123309047Y-104608476D01*
%TO.C,R33*%
X124325142Y-110180380D02*
X123991809Y-109704190D01*
X123753714Y-110180380D02*
X123753714Y-109180380D01*
X124134666Y-109180380D01*
X124229904Y-109228000D01*
X124277523Y-109275619D01*
X124325142Y-109370857D01*
X124325142Y-109513714D01*
X124277523Y-109608952D01*
X124229904Y-109656571D01*
X124134666Y-109704190D01*
X123753714Y-109704190D01*
X124658476Y-109180380D02*
X125277523Y-109180380D01*
X124944190Y-109561333D01*
X125087047Y-109561333D01*
X125182285Y-109608952D01*
X125229904Y-109656571D01*
X125277523Y-109751809D01*
X125277523Y-109989904D01*
X125229904Y-110085142D01*
X125182285Y-110132761D01*
X125087047Y-110180380D01*
X124801333Y-110180380D01*
X124706095Y-110132761D01*
X124658476Y-110085142D01*
X125610857Y-109180380D02*
X126229904Y-109180380D01*
X125896571Y-109561333D01*
X126039428Y-109561333D01*
X126134666Y-109608952D01*
X126182285Y-109656571D01*
X126229904Y-109751809D01*
X126229904Y-109989904D01*
X126182285Y-110085142D01*
X126134666Y-110132761D01*
X126039428Y-110180380D01*
X125753714Y-110180380D01*
X125658476Y-110132761D01*
X125610857Y-110085142D01*
%TO.C,R32*%
X129230380Y-106560857D02*
X128754190Y-106894190D01*
X129230380Y-107132285D02*
X128230380Y-107132285D01*
X128230380Y-106751333D01*
X128278000Y-106656095D01*
X128325619Y-106608476D01*
X128420857Y-106560857D01*
X128563714Y-106560857D01*
X128658952Y-106608476D01*
X128706571Y-106656095D01*
X128754190Y-106751333D01*
X128754190Y-107132285D01*
X128230380Y-106227523D02*
X128230380Y-105608476D01*
X128611333Y-105941809D01*
X128611333Y-105798952D01*
X128658952Y-105703714D01*
X128706571Y-105656095D01*
X128801809Y-105608476D01*
X129039904Y-105608476D01*
X129135142Y-105656095D01*
X129182761Y-105703714D01*
X129230380Y-105798952D01*
X129230380Y-106084666D01*
X129182761Y-106179904D01*
X129135142Y-106227523D01*
X128325619Y-105227523D02*
X128278000Y-105179904D01*
X128230380Y-105084666D01*
X128230380Y-104846571D01*
X128278000Y-104751333D01*
X128325619Y-104703714D01*
X128420857Y-104656095D01*
X128516095Y-104656095D01*
X128658952Y-104703714D01*
X129230380Y-105275142D01*
X129230380Y-104656095D01*
%TO.C,R31*%
X144521142Y-74366380D02*
X144187809Y-73890190D01*
X143949714Y-74366380D02*
X143949714Y-73366380D01*
X144330666Y-73366380D01*
X144425904Y-73414000D01*
X144473523Y-73461619D01*
X144521142Y-73556857D01*
X144521142Y-73699714D01*
X144473523Y-73794952D01*
X144425904Y-73842571D01*
X144330666Y-73890190D01*
X143949714Y-73890190D01*
X144854476Y-73366380D02*
X145473523Y-73366380D01*
X145140190Y-73747333D01*
X145283047Y-73747333D01*
X145378285Y-73794952D01*
X145425904Y-73842571D01*
X145473523Y-73937809D01*
X145473523Y-74175904D01*
X145425904Y-74271142D01*
X145378285Y-74318761D01*
X145283047Y-74366380D01*
X144997333Y-74366380D01*
X144902095Y-74318761D01*
X144854476Y-74271142D01*
X146425904Y-74366380D02*
X145854476Y-74366380D01*
X146140190Y-74366380D02*
X146140190Y-73366380D01*
X146044952Y-73509238D01*
X145949714Y-73604476D01*
X145854476Y-73652095D01*
%TO.C,R30*%
X126989142Y-67720380D02*
X126655809Y-67244190D01*
X126417714Y-67720380D02*
X126417714Y-66720380D01*
X126798666Y-66720380D01*
X126893904Y-66768000D01*
X126941523Y-66815619D01*
X126989142Y-66910857D01*
X126989142Y-67053714D01*
X126941523Y-67148952D01*
X126893904Y-67196571D01*
X126798666Y-67244190D01*
X126417714Y-67244190D01*
X127322476Y-66720380D02*
X127941523Y-66720380D01*
X127608190Y-67101333D01*
X127751047Y-67101333D01*
X127846285Y-67148952D01*
X127893904Y-67196571D01*
X127941523Y-67291809D01*
X127941523Y-67529904D01*
X127893904Y-67625142D01*
X127846285Y-67672761D01*
X127751047Y-67720380D01*
X127465333Y-67720380D01*
X127370095Y-67672761D01*
X127322476Y-67625142D01*
X128560571Y-66720380D02*
X128655809Y-66720380D01*
X128751047Y-66768000D01*
X128798666Y-66815619D01*
X128846285Y-66910857D01*
X128893904Y-67101333D01*
X128893904Y-67339428D01*
X128846285Y-67529904D01*
X128798666Y-67625142D01*
X128751047Y-67672761D01*
X128655809Y-67720380D01*
X128560571Y-67720380D01*
X128465333Y-67672761D01*
X128417714Y-67625142D01*
X128370095Y-67529904D01*
X128322476Y-67339428D01*
X128322476Y-67101333D01*
X128370095Y-66910857D01*
X128417714Y-66815619D01*
X128465333Y-66768000D01*
X128560571Y-66720380D01*
%TO.C,R29*%
X144645142Y-78430380D02*
X144311809Y-77954190D01*
X144073714Y-78430380D02*
X144073714Y-77430380D01*
X144454666Y-77430380D01*
X144549904Y-77478000D01*
X144597523Y-77525619D01*
X144645142Y-77620857D01*
X144645142Y-77763714D01*
X144597523Y-77858952D01*
X144549904Y-77906571D01*
X144454666Y-77954190D01*
X144073714Y-77954190D01*
X145026095Y-77525619D02*
X145073714Y-77478000D01*
X145168952Y-77430380D01*
X145407047Y-77430380D01*
X145502285Y-77478000D01*
X145549904Y-77525619D01*
X145597523Y-77620857D01*
X145597523Y-77716095D01*
X145549904Y-77858952D01*
X144978476Y-78430380D01*
X145597523Y-78430380D01*
X146073714Y-78430380D02*
X146264190Y-78430380D01*
X146359428Y-78382761D01*
X146407047Y-78335142D01*
X146502285Y-78192285D01*
X146549904Y-78001809D01*
X146549904Y-77620857D01*
X146502285Y-77525619D01*
X146454666Y-77478000D01*
X146359428Y-77430380D01*
X146168952Y-77430380D01*
X146073714Y-77478000D01*
X146026095Y-77525619D01*
X145978476Y-77620857D01*
X145978476Y-77858952D01*
X146026095Y-77954190D01*
X146073714Y-78001809D01*
X146168952Y-78049428D01*
X146359428Y-78049428D01*
X146454666Y-78001809D01*
X146502285Y-77954190D01*
X146549904Y-77858952D01*
%TO.C,R28*%
X144515142Y-84018380D02*
X144181809Y-83542190D01*
X143943714Y-84018380D02*
X143943714Y-83018380D01*
X144324666Y-83018380D01*
X144419904Y-83066000D01*
X144467523Y-83113619D01*
X144515142Y-83208857D01*
X144515142Y-83351714D01*
X144467523Y-83446952D01*
X144419904Y-83494571D01*
X144324666Y-83542190D01*
X143943714Y-83542190D01*
X144896095Y-83113619D02*
X144943714Y-83066000D01*
X145038952Y-83018380D01*
X145277047Y-83018380D01*
X145372285Y-83066000D01*
X145419904Y-83113619D01*
X145467523Y-83208857D01*
X145467523Y-83304095D01*
X145419904Y-83446952D01*
X144848476Y-84018380D01*
X145467523Y-84018380D01*
X146038952Y-83446952D02*
X145943714Y-83399333D01*
X145896095Y-83351714D01*
X145848476Y-83256476D01*
X145848476Y-83208857D01*
X145896095Y-83113619D01*
X145943714Y-83066000D01*
X146038952Y-83018380D01*
X146229428Y-83018380D01*
X146324666Y-83066000D01*
X146372285Y-83113619D01*
X146419904Y-83208857D01*
X146419904Y-83256476D01*
X146372285Y-83351714D01*
X146324666Y-83399333D01*
X146229428Y-83446952D01*
X146038952Y-83446952D01*
X145943714Y-83494571D01*
X145896095Y-83542190D01*
X145848476Y-83637428D01*
X145848476Y-83827904D01*
X145896095Y-83923142D01*
X145943714Y-83970761D01*
X146038952Y-84018380D01*
X146229428Y-84018380D01*
X146324666Y-83970761D01*
X146372285Y-83923142D01*
X146419904Y-83827904D01*
X146419904Y-83637428D01*
X146372285Y-83542190D01*
X146324666Y-83494571D01*
X146229428Y-83446952D01*
%TO.C,R27*%
X126989142Y-59380380D02*
X126655809Y-58904190D01*
X126417714Y-59380380D02*
X126417714Y-58380380D01*
X126798666Y-58380380D01*
X126893904Y-58428000D01*
X126941523Y-58475619D01*
X126989142Y-58570857D01*
X126989142Y-58713714D01*
X126941523Y-58808952D01*
X126893904Y-58856571D01*
X126798666Y-58904190D01*
X126417714Y-58904190D01*
X127370095Y-58475619D02*
X127417714Y-58428000D01*
X127512952Y-58380380D01*
X127751047Y-58380380D01*
X127846285Y-58428000D01*
X127893904Y-58475619D01*
X127941523Y-58570857D01*
X127941523Y-58666095D01*
X127893904Y-58808952D01*
X127322476Y-59380380D01*
X127941523Y-59380380D01*
X128274857Y-58380380D02*
X128941523Y-58380380D01*
X128512952Y-59380380D01*
%TO.C,R26*%
X101589142Y-109630380D02*
X101255809Y-109154190D01*
X101017714Y-109630380D02*
X101017714Y-108630380D01*
X101398666Y-108630380D01*
X101493904Y-108678000D01*
X101541523Y-108725619D01*
X101589142Y-108820857D01*
X101589142Y-108963714D01*
X101541523Y-109058952D01*
X101493904Y-109106571D01*
X101398666Y-109154190D01*
X101017714Y-109154190D01*
X101970095Y-108725619D02*
X102017714Y-108678000D01*
X102112952Y-108630380D01*
X102351047Y-108630380D01*
X102446285Y-108678000D01*
X102493904Y-108725619D01*
X102541523Y-108820857D01*
X102541523Y-108916095D01*
X102493904Y-109058952D01*
X101922476Y-109630380D01*
X102541523Y-109630380D01*
X103398666Y-108630380D02*
X103208190Y-108630380D01*
X103112952Y-108678000D01*
X103065333Y-108725619D01*
X102970095Y-108868476D01*
X102922476Y-109058952D01*
X102922476Y-109439904D01*
X102970095Y-109535142D01*
X103017714Y-109582761D01*
X103112952Y-109630380D01*
X103303428Y-109630380D01*
X103398666Y-109582761D01*
X103446285Y-109535142D01*
X103493904Y-109439904D01*
X103493904Y-109201809D01*
X103446285Y-109106571D01*
X103398666Y-109058952D01*
X103303428Y-109011333D01*
X103112952Y-109011333D01*
X103017714Y-109058952D01*
X102970095Y-109106571D01*
X102922476Y-109201809D01*
%TO.C,R25*%
X107894380Y-113164857D02*
X107418190Y-113498190D01*
X107894380Y-113736285D02*
X106894380Y-113736285D01*
X106894380Y-113355333D01*
X106942000Y-113260095D01*
X106989619Y-113212476D01*
X107084857Y-113164857D01*
X107227714Y-113164857D01*
X107322952Y-113212476D01*
X107370571Y-113260095D01*
X107418190Y-113355333D01*
X107418190Y-113736285D01*
X106989619Y-112783904D02*
X106942000Y-112736285D01*
X106894380Y-112641047D01*
X106894380Y-112402952D01*
X106942000Y-112307714D01*
X106989619Y-112260095D01*
X107084857Y-112212476D01*
X107180095Y-112212476D01*
X107322952Y-112260095D01*
X107894380Y-112831523D01*
X107894380Y-112212476D01*
X106894380Y-111307714D02*
X106894380Y-111783904D01*
X107370571Y-111831523D01*
X107322952Y-111783904D01*
X107275333Y-111688666D01*
X107275333Y-111450571D01*
X107322952Y-111355333D01*
X107370571Y-111307714D01*
X107465809Y-111260095D01*
X107703904Y-111260095D01*
X107799142Y-111307714D01*
X107846761Y-111355333D01*
X107894380Y-111450571D01*
X107894380Y-111688666D01*
X107846761Y-111783904D01*
X107799142Y-111831523D01*
%TO.C,R24*%
X107894380Y-106306857D02*
X107418190Y-106640190D01*
X107894380Y-106878285D02*
X106894380Y-106878285D01*
X106894380Y-106497333D01*
X106942000Y-106402095D01*
X106989619Y-106354476D01*
X107084857Y-106306857D01*
X107227714Y-106306857D01*
X107322952Y-106354476D01*
X107370571Y-106402095D01*
X107418190Y-106497333D01*
X107418190Y-106878285D01*
X106989619Y-105925904D02*
X106942000Y-105878285D01*
X106894380Y-105783047D01*
X106894380Y-105544952D01*
X106942000Y-105449714D01*
X106989619Y-105402095D01*
X107084857Y-105354476D01*
X107180095Y-105354476D01*
X107322952Y-105402095D01*
X107894380Y-105973523D01*
X107894380Y-105354476D01*
X107227714Y-104497333D02*
X107894380Y-104497333D01*
X106846761Y-104735428D02*
X107561047Y-104973523D01*
X107561047Y-104354476D01*
%TO.C,R23*%
X99470380Y-99572857D02*
X98994190Y-99906190D01*
X99470380Y-100144285D02*
X98470380Y-100144285D01*
X98470380Y-99763333D01*
X98518000Y-99668095D01*
X98565619Y-99620476D01*
X98660857Y-99572857D01*
X98803714Y-99572857D01*
X98898952Y-99620476D01*
X98946571Y-99668095D01*
X98994190Y-99763333D01*
X98994190Y-100144285D01*
X98565619Y-99191904D02*
X98518000Y-99144285D01*
X98470380Y-99049047D01*
X98470380Y-98810952D01*
X98518000Y-98715714D01*
X98565619Y-98668095D01*
X98660857Y-98620476D01*
X98756095Y-98620476D01*
X98898952Y-98668095D01*
X99470380Y-99239523D01*
X99470380Y-98620476D01*
X98470380Y-98287142D02*
X98470380Y-97668095D01*
X98851333Y-98001428D01*
X98851333Y-97858571D01*
X98898952Y-97763333D01*
X98946571Y-97715714D01*
X99041809Y-97668095D01*
X99279904Y-97668095D01*
X99375142Y-97715714D01*
X99422761Y-97763333D01*
X99470380Y-97858571D01*
X99470380Y-98144285D01*
X99422761Y-98239523D01*
X99375142Y-98287142D01*
%TO.C,R21*%
X85034380Y-112910857D02*
X84558190Y-113244190D01*
X85034380Y-113482285D02*
X84034380Y-113482285D01*
X84034380Y-113101333D01*
X84082000Y-113006095D01*
X84129619Y-112958476D01*
X84224857Y-112910857D01*
X84367714Y-112910857D01*
X84462952Y-112958476D01*
X84510571Y-113006095D01*
X84558190Y-113101333D01*
X84558190Y-113482285D01*
X84129619Y-112529904D02*
X84082000Y-112482285D01*
X84034380Y-112387047D01*
X84034380Y-112148952D01*
X84082000Y-112053714D01*
X84129619Y-112006095D01*
X84224857Y-111958476D01*
X84320095Y-111958476D01*
X84462952Y-112006095D01*
X85034380Y-112577523D01*
X85034380Y-111958476D01*
X85034380Y-111006095D02*
X85034380Y-111577523D01*
X85034380Y-111291809D02*
X84034380Y-111291809D01*
X84177238Y-111387047D01*
X84272476Y-111482285D01*
X84320095Y-111577523D01*
%TO.C,R20*%
X160139142Y-112720380D02*
X159805809Y-112244190D01*
X159567714Y-112720380D02*
X159567714Y-111720380D01*
X159948666Y-111720380D01*
X160043904Y-111768000D01*
X160091523Y-111815619D01*
X160139142Y-111910857D01*
X160139142Y-112053714D01*
X160091523Y-112148952D01*
X160043904Y-112196571D01*
X159948666Y-112244190D01*
X159567714Y-112244190D01*
X160520095Y-111815619D02*
X160567714Y-111768000D01*
X160662952Y-111720380D01*
X160901047Y-111720380D01*
X160996285Y-111768000D01*
X161043904Y-111815619D01*
X161091523Y-111910857D01*
X161091523Y-112006095D01*
X161043904Y-112148952D01*
X160472476Y-112720380D01*
X161091523Y-112720380D01*
X161710571Y-111720380D02*
X161805809Y-111720380D01*
X161901047Y-111768000D01*
X161948666Y-111815619D01*
X161996285Y-111910857D01*
X162043904Y-112101333D01*
X162043904Y-112339428D01*
X161996285Y-112529904D01*
X161948666Y-112625142D01*
X161901047Y-112672761D01*
X161805809Y-112720380D01*
X161710571Y-112720380D01*
X161615333Y-112672761D01*
X161567714Y-112625142D01*
X161520095Y-112529904D01*
X161472476Y-112339428D01*
X161472476Y-112101333D01*
X161520095Y-111910857D01*
X161567714Y-111815619D01*
X161615333Y-111768000D01*
X161710571Y-111720380D01*
%TO.C,R19*%
X160139142Y-103322380D02*
X159805809Y-102846190D01*
X159567714Y-103322380D02*
X159567714Y-102322380D01*
X159948666Y-102322380D01*
X160043904Y-102370000D01*
X160091523Y-102417619D01*
X160139142Y-102512857D01*
X160139142Y-102655714D01*
X160091523Y-102750952D01*
X160043904Y-102798571D01*
X159948666Y-102846190D01*
X159567714Y-102846190D01*
X161091523Y-103322380D02*
X160520095Y-103322380D01*
X160805809Y-103322380D02*
X160805809Y-102322380D01*
X160710571Y-102465238D01*
X160615333Y-102560476D01*
X160520095Y-102608095D01*
X161567714Y-103322380D02*
X161758190Y-103322380D01*
X161853428Y-103274761D01*
X161901047Y-103227142D01*
X161996285Y-103084285D01*
X162043904Y-102893809D01*
X162043904Y-102512857D01*
X161996285Y-102417619D01*
X161948666Y-102370000D01*
X161853428Y-102322380D01*
X161662952Y-102322380D01*
X161567714Y-102370000D01*
X161520095Y-102417619D01*
X161472476Y-102512857D01*
X161472476Y-102750952D01*
X161520095Y-102846190D01*
X161567714Y-102893809D01*
X161662952Y-102941428D01*
X161853428Y-102941428D01*
X161948666Y-102893809D01*
X161996285Y-102846190D01*
X162043904Y-102750952D01*
%TO.C,R18*%
X160139142Y-97988380D02*
X159805809Y-97512190D01*
X159567714Y-97988380D02*
X159567714Y-96988380D01*
X159948666Y-96988380D01*
X160043904Y-97036000D01*
X160091523Y-97083619D01*
X160139142Y-97178857D01*
X160139142Y-97321714D01*
X160091523Y-97416952D01*
X160043904Y-97464571D01*
X159948666Y-97512190D01*
X159567714Y-97512190D01*
X161091523Y-97988380D02*
X160520095Y-97988380D01*
X160805809Y-97988380D02*
X160805809Y-96988380D01*
X160710571Y-97131238D01*
X160615333Y-97226476D01*
X160520095Y-97274095D01*
X161662952Y-97416952D02*
X161567714Y-97369333D01*
X161520095Y-97321714D01*
X161472476Y-97226476D01*
X161472476Y-97178857D01*
X161520095Y-97083619D01*
X161567714Y-97036000D01*
X161662952Y-96988380D01*
X161853428Y-96988380D01*
X161948666Y-97036000D01*
X161996285Y-97083619D01*
X162043904Y-97178857D01*
X162043904Y-97226476D01*
X161996285Y-97321714D01*
X161948666Y-97369333D01*
X161853428Y-97416952D01*
X161662952Y-97416952D01*
X161567714Y-97464571D01*
X161520095Y-97512190D01*
X161472476Y-97607428D01*
X161472476Y-97797904D01*
X161520095Y-97893142D01*
X161567714Y-97940761D01*
X161662952Y-97988380D01*
X161853428Y-97988380D01*
X161948666Y-97940761D01*
X161996285Y-97893142D01*
X162043904Y-97797904D01*
X162043904Y-97607428D01*
X161996285Y-97512190D01*
X161948666Y-97464571D01*
X161853428Y-97416952D01*
%TO.C,R17*%
X160137142Y-87122380D02*
X159803809Y-86646190D01*
X159565714Y-87122380D02*
X159565714Y-86122380D01*
X159946666Y-86122380D01*
X160041904Y-86170000D01*
X160089523Y-86217619D01*
X160137142Y-86312857D01*
X160137142Y-86455714D01*
X160089523Y-86550952D01*
X160041904Y-86598571D01*
X159946666Y-86646190D01*
X159565714Y-86646190D01*
X161089523Y-87122380D02*
X160518095Y-87122380D01*
X160803809Y-87122380D02*
X160803809Y-86122380D01*
X160708571Y-86265238D01*
X160613333Y-86360476D01*
X160518095Y-86408095D01*
X161422857Y-86122380D02*
X162089523Y-86122380D01*
X161660952Y-87122380D01*
%TO.C,R16*%
X160393142Y-82240380D02*
X160059809Y-81764190D01*
X159821714Y-82240380D02*
X159821714Y-81240380D01*
X160202666Y-81240380D01*
X160297904Y-81288000D01*
X160345523Y-81335619D01*
X160393142Y-81430857D01*
X160393142Y-81573714D01*
X160345523Y-81668952D01*
X160297904Y-81716571D01*
X160202666Y-81764190D01*
X159821714Y-81764190D01*
X161345523Y-82240380D02*
X160774095Y-82240380D01*
X161059809Y-82240380D02*
X161059809Y-81240380D01*
X160964571Y-81383238D01*
X160869333Y-81478476D01*
X160774095Y-81526095D01*
X162202666Y-81240380D02*
X162012190Y-81240380D01*
X161916952Y-81288000D01*
X161869333Y-81335619D01*
X161774095Y-81478476D01*
X161726476Y-81668952D01*
X161726476Y-82049904D01*
X161774095Y-82145142D01*
X161821714Y-82192761D01*
X161916952Y-82240380D01*
X162107428Y-82240380D01*
X162202666Y-82192761D01*
X162250285Y-82145142D01*
X162297904Y-82049904D01*
X162297904Y-81811809D01*
X162250285Y-81716571D01*
X162202666Y-81668952D01*
X162107428Y-81621333D01*
X161916952Y-81621333D01*
X161821714Y-81668952D01*
X161774095Y-81716571D01*
X161726476Y-81811809D01*
%TO.C,R15*%
X160139142Y-71826380D02*
X159805809Y-71350190D01*
X159567714Y-71826380D02*
X159567714Y-70826380D01*
X159948666Y-70826380D01*
X160043904Y-70874000D01*
X160091523Y-70921619D01*
X160139142Y-71016857D01*
X160139142Y-71159714D01*
X160091523Y-71254952D01*
X160043904Y-71302571D01*
X159948666Y-71350190D01*
X159567714Y-71350190D01*
X161091523Y-71826380D02*
X160520095Y-71826380D01*
X160805809Y-71826380D02*
X160805809Y-70826380D01*
X160710571Y-70969238D01*
X160615333Y-71064476D01*
X160520095Y-71112095D01*
X161996285Y-70826380D02*
X161520095Y-70826380D01*
X161472476Y-71302571D01*
X161520095Y-71254952D01*
X161615333Y-71207333D01*
X161853428Y-71207333D01*
X161948666Y-71254952D01*
X161996285Y-71302571D01*
X162043904Y-71397809D01*
X162043904Y-71635904D01*
X161996285Y-71731142D01*
X161948666Y-71778761D01*
X161853428Y-71826380D01*
X161615333Y-71826380D01*
X161520095Y-71778761D01*
X161472476Y-71731142D01*
%TO.C,R14*%
X180834380Y-79760857D02*
X180358190Y-80094190D01*
X180834380Y-80332285D02*
X179834380Y-80332285D01*
X179834380Y-79951333D01*
X179882000Y-79856095D01*
X179929619Y-79808476D01*
X180024857Y-79760857D01*
X180167714Y-79760857D01*
X180262952Y-79808476D01*
X180310571Y-79856095D01*
X180358190Y-79951333D01*
X180358190Y-80332285D01*
X180834380Y-78808476D02*
X180834380Y-79379904D01*
X180834380Y-79094190D02*
X179834380Y-79094190D01*
X179977238Y-79189428D01*
X180072476Y-79284666D01*
X180120095Y-79379904D01*
X180167714Y-77951333D02*
X180834380Y-77951333D01*
X179786761Y-78189428D02*
X180501047Y-78427523D01*
X180501047Y-77808476D01*
%TO.C,R13*%
X180834380Y-109986857D02*
X180358190Y-110320190D01*
X180834380Y-110558285D02*
X179834380Y-110558285D01*
X179834380Y-110177333D01*
X179882000Y-110082095D01*
X179929619Y-110034476D01*
X180024857Y-109986857D01*
X180167714Y-109986857D01*
X180262952Y-110034476D01*
X180310571Y-110082095D01*
X180358190Y-110177333D01*
X180358190Y-110558285D01*
X180834380Y-109034476D02*
X180834380Y-109605904D01*
X180834380Y-109320190D02*
X179834380Y-109320190D01*
X179977238Y-109415428D01*
X180072476Y-109510666D01*
X180120095Y-109605904D01*
X179834380Y-108701142D02*
X179834380Y-108082095D01*
X180215333Y-108415428D01*
X180215333Y-108272571D01*
X180262952Y-108177333D01*
X180310571Y-108129714D01*
X180405809Y-108082095D01*
X180643904Y-108082095D01*
X180739142Y-108129714D01*
X180786761Y-108177333D01*
X180834380Y-108272571D01*
X180834380Y-108558285D01*
X180786761Y-108653523D01*
X180739142Y-108701142D01*
%TO.C,R12*%
X180326380Y-95260857D02*
X179850190Y-95594190D01*
X180326380Y-95832285D02*
X179326380Y-95832285D01*
X179326380Y-95451333D01*
X179374000Y-95356095D01*
X179421619Y-95308476D01*
X179516857Y-95260857D01*
X179659714Y-95260857D01*
X179754952Y-95308476D01*
X179802571Y-95356095D01*
X179850190Y-95451333D01*
X179850190Y-95832285D01*
X180326380Y-94308476D02*
X180326380Y-94879904D01*
X180326380Y-94594190D02*
X179326380Y-94594190D01*
X179469238Y-94689428D01*
X179564476Y-94784666D01*
X179612095Y-94879904D01*
X179421619Y-93927523D02*
X179374000Y-93879904D01*
X179326380Y-93784666D01*
X179326380Y-93546571D01*
X179374000Y-93451333D01*
X179421619Y-93403714D01*
X179516857Y-93356095D01*
X179612095Y-93356095D01*
X179754952Y-93403714D01*
X180326380Y-93975142D01*
X180326380Y-93356095D01*
%TO.C,R11*%
X92866380Y-91704857D02*
X92390190Y-92038190D01*
X92866380Y-92276285D02*
X91866380Y-92276285D01*
X91866380Y-91895333D01*
X91914000Y-91800095D01*
X91961619Y-91752476D01*
X92056857Y-91704857D01*
X92199714Y-91704857D01*
X92294952Y-91752476D01*
X92342571Y-91800095D01*
X92390190Y-91895333D01*
X92390190Y-92276285D01*
X92866380Y-90752476D02*
X92866380Y-91323904D01*
X92866380Y-91038190D02*
X91866380Y-91038190D01*
X92009238Y-91133428D01*
X92104476Y-91228666D01*
X92152095Y-91323904D01*
X92866380Y-89800095D02*
X92866380Y-90371523D01*
X92866380Y-90085809D02*
X91866380Y-90085809D01*
X92009238Y-90181047D01*
X92104476Y-90276285D01*
X92152095Y-90371523D01*
%TO.C,R10*%
X69794380Y-112656857D02*
X69318190Y-112990190D01*
X69794380Y-113228285D02*
X68794380Y-113228285D01*
X68794380Y-112847333D01*
X68842000Y-112752095D01*
X68889619Y-112704476D01*
X68984857Y-112656857D01*
X69127714Y-112656857D01*
X69222952Y-112704476D01*
X69270571Y-112752095D01*
X69318190Y-112847333D01*
X69318190Y-113228285D01*
X69794380Y-111704476D02*
X69794380Y-112275904D01*
X69794380Y-111990190D02*
X68794380Y-111990190D01*
X68937238Y-112085428D01*
X69032476Y-112180666D01*
X69080095Y-112275904D01*
X68794380Y-111085428D02*
X68794380Y-110990190D01*
X68842000Y-110894952D01*
X68889619Y-110847333D01*
X68984857Y-110799714D01*
X69175333Y-110752095D01*
X69413428Y-110752095D01*
X69603904Y-110799714D01*
X69699142Y-110847333D01*
X69746761Y-110894952D01*
X69794380Y-110990190D01*
X69794380Y-111085428D01*
X69746761Y-111180666D01*
X69699142Y-111228285D01*
X69603904Y-111275904D01*
X69413428Y-111323523D01*
X69175333Y-111323523D01*
X68984857Y-111275904D01*
X68889619Y-111228285D01*
X68842000Y-111180666D01*
X68794380Y-111085428D01*
%TO.C,R9*%
X76906380Y-112558666D02*
X76430190Y-112892000D01*
X76906380Y-113130095D02*
X75906380Y-113130095D01*
X75906380Y-112749142D01*
X75954000Y-112653904D01*
X76001619Y-112606285D01*
X76096857Y-112558666D01*
X76239714Y-112558666D01*
X76334952Y-112606285D01*
X76382571Y-112653904D01*
X76430190Y-112749142D01*
X76430190Y-113130095D01*
X76906380Y-112082476D02*
X76906380Y-111892000D01*
X76858761Y-111796761D01*
X76811142Y-111749142D01*
X76668285Y-111653904D01*
X76477809Y-111606285D01*
X76096857Y-111606285D01*
X76001619Y-111653904D01*
X75954000Y-111701523D01*
X75906380Y-111796761D01*
X75906380Y-111987238D01*
X75954000Y-112082476D01*
X76001619Y-112130095D01*
X76096857Y-112177714D01*
X76334952Y-112177714D01*
X76430190Y-112130095D01*
X76477809Y-112082476D01*
X76525428Y-111987238D01*
X76525428Y-111796761D01*
X76477809Y-111701523D01*
X76430190Y-111653904D01*
X76334952Y-111606285D01*
%TO.C,R8*%
X76906380Y-105830666D02*
X76430190Y-106164000D01*
X76906380Y-106402095D02*
X75906380Y-106402095D01*
X75906380Y-106021142D01*
X75954000Y-105925904D01*
X76001619Y-105878285D01*
X76096857Y-105830666D01*
X76239714Y-105830666D01*
X76334952Y-105878285D01*
X76382571Y-105925904D01*
X76430190Y-106021142D01*
X76430190Y-106402095D01*
X76334952Y-105259238D02*
X76287333Y-105354476D01*
X76239714Y-105402095D01*
X76144476Y-105449714D01*
X76096857Y-105449714D01*
X76001619Y-105402095D01*
X75954000Y-105354476D01*
X75906380Y-105259238D01*
X75906380Y-105068761D01*
X75954000Y-104973523D01*
X76001619Y-104925904D01*
X76096857Y-104878285D01*
X76144476Y-104878285D01*
X76239714Y-104925904D01*
X76287333Y-104973523D01*
X76334952Y-105068761D01*
X76334952Y-105259238D01*
X76382571Y-105354476D01*
X76430190Y-105402095D01*
X76525428Y-105449714D01*
X76715904Y-105449714D01*
X76811142Y-105402095D01*
X76858761Y-105354476D01*
X76906380Y-105259238D01*
X76906380Y-105068761D01*
X76858761Y-104973523D01*
X76811142Y-104925904D01*
X76715904Y-104878285D01*
X76525428Y-104878285D01*
X76430190Y-104925904D01*
X76382571Y-104973523D01*
X76334952Y-105068761D01*
%TO.C,R7*%
X85500380Y-70902666D02*
X85024190Y-71236000D01*
X85500380Y-71474095D02*
X84500380Y-71474095D01*
X84500380Y-71093142D01*
X84548000Y-70997904D01*
X84595619Y-70950285D01*
X84690857Y-70902666D01*
X84833714Y-70902666D01*
X84928952Y-70950285D01*
X84976571Y-70997904D01*
X85024190Y-71093142D01*
X85024190Y-71474095D01*
X84500380Y-70569333D02*
X84500380Y-69902666D01*
X85500380Y-70331238D01*
%TO.C,R6*%
X74620380Y-71156666D02*
X74144190Y-71490000D01*
X74620380Y-71728095D02*
X73620380Y-71728095D01*
X73620380Y-71347142D01*
X73668000Y-71251904D01*
X73715619Y-71204285D01*
X73810857Y-71156666D01*
X73953714Y-71156666D01*
X74048952Y-71204285D01*
X74096571Y-71251904D01*
X74144190Y-71347142D01*
X74144190Y-71728095D01*
X73620380Y-70299523D02*
X73620380Y-70490000D01*
X73668000Y-70585238D01*
X73715619Y-70632857D01*
X73858476Y-70728095D01*
X74048952Y-70775714D01*
X74429904Y-70775714D01*
X74525142Y-70728095D01*
X74572761Y-70680476D01*
X74620380Y-70585238D01*
X74620380Y-70394761D01*
X74572761Y-70299523D01*
X74525142Y-70251904D01*
X74429904Y-70204285D01*
X74191809Y-70204285D01*
X74096571Y-70251904D01*
X74048952Y-70299523D01*
X74001333Y-70394761D01*
X74001333Y-70585238D01*
X74048952Y-70680476D01*
X74096571Y-70728095D01*
X74191809Y-70775714D01*
%TO.C,R5*%
X62650380Y-81954666D02*
X62174190Y-82288000D01*
X62650380Y-82526095D02*
X61650380Y-82526095D01*
X61650380Y-82145142D01*
X61698000Y-82049904D01*
X61745619Y-82002285D01*
X61840857Y-81954666D01*
X61983714Y-81954666D01*
X62078952Y-82002285D01*
X62126571Y-82049904D01*
X62174190Y-82145142D01*
X62174190Y-82526095D01*
X61650380Y-81049904D02*
X61650380Y-81526095D01*
X62126571Y-81573714D01*
X62078952Y-81526095D01*
X62031333Y-81430857D01*
X62031333Y-81192761D01*
X62078952Y-81097523D01*
X62126571Y-81049904D01*
X62221809Y-81002285D01*
X62459904Y-81002285D01*
X62555142Y-81049904D01*
X62602761Y-81097523D01*
X62650380Y-81192761D01*
X62650380Y-81430857D01*
X62602761Y-81526095D01*
X62555142Y-81573714D01*
%TO.C,R4*%
X84432380Y-99216666D02*
X83956190Y-99550000D01*
X84432380Y-99788095D02*
X83432380Y-99788095D01*
X83432380Y-99407142D01*
X83480000Y-99311904D01*
X83527619Y-99264285D01*
X83622857Y-99216666D01*
X83765714Y-99216666D01*
X83860952Y-99264285D01*
X83908571Y-99311904D01*
X83956190Y-99407142D01*
X83956190Y-99788095D01*
X83765714Y-98359523D02*
X84432380Y-98359523D01*
X83384761Y-98597619D02*
X84099047Y-98835714D01*
X84099047Y-98216666D01*
%TO.C,R3*%
X76772380Y-99376666D02*
X76296190Y-99710000D01*
X76772380Y-99948095D02*
X75772380Y-99948095D01*
X75772380Y-99567142D01*
X75820000Y-99471904D01*
X75867619Y-99424285D01*
X75962857Y-99376666D01*
X76105714Y-99376666D01*
X76200952Y-99424285D01*
X76248571Y-99471904D01*
X76296190Y-99567142D01*
X76296190Y-99948095D01*
X75772380Y-99043333D02*
X75772380Y-98424285D01*
X76153333Y-98757619D01*
X76153333Y-98614761D01*
X76200952Y-98519523D01*
X76248571Y-98471904D01*
X76343809Y-98424285D01*
X76581904Y-98424285D01*
X76677142Y-98471904D01*
X76724761Y-98519523D01*
X76772380Y-98614761D01*
X76772380Y-98900476D01*
X76724761Y-98995714D01*
X76677142Y-99043333D01*
%TO.C,R2*%
X93559333Y-68016380D02*
X93226000Y-67540190D01*
X92987904Y-68016380D02*
X92987904Y-67016380D01*
X93368857Y-67016380D01*
X93464095Y-67064000D01*
X93511714Y-67111619D01*
X93559333Y-67206857D01*
X93559333Y-67349714D01*
X93511714Y-67444952D01*
X93464095Y-67492571D01*
X93368857Y-67540190D01*
X92987904Y-67540190D01*
X93940285Y-67111619D02*
X93987904Y-67064000D01*
X94083142Y-67016380D01*
X94321238Y-67016380D01*
X94416476Y-67064000D01*
X94464095Y-67111619D01*
X94511714Y-67206857D01*
X94511714Y-67302095D01*
X94464095Y-67444952D01*
X93892666Y-68016380D01*
X94511714Y-68016380D01*
%TO.C,R1*%
X99258380Y-60742666D02*
X98782190Y-61076000D01*
X99258380Y-61314095D02*
X98258380Y-61314095D01*
X98258380Y-60933142D01*
X98306000Y-60837904D01*
X98353619Y-60790285D01*
X98448857Y-60742666D01*
X98591714Y-60742666D01*
X98686952Y-60790285D01*
X98734571Y-60837904D01*
X98782190Y-60933142D01*
X98782190Y-61314095D01*
X99258380Y-59790285D02*
X99258380Y-60361714D01*
X99258380Y-60076000D02*
X98258380Y-60076000D01*
X98401238Y-60171238D01*
X98496476Y-60266476D01*
X98544095Y-60361714D01*
%TO.C,Q1*%
X79287619Y-70961238D02*
X79240000Y-71056476D01*
X79144761Y-71151714D01*
X79001904Y-71294571D01*
X78954285Y-71389809D01*
X78954285Y-71485047D01*
X79192380Y-71437428D02*
X79144761Y-71532666D01*
X79049523Y-71627904D01*
X78859047Y-71675523D01*
X78525714Y-71675523D01*
X78335238Y-71627904D01*
X78240000Y-71532666D01*
X78192380Y-71437428D01*
X78192380Y-71246952D01*
X78240000Y-71151714D01*
X78335238Y-71056476D01*
X78525714Y-71008857D01*
X78859047Y-71008857D01*
X79049523Y-71056476D01*
X79144761Y-71151714D01*
X79192380Y-71246952D01*
X79192380Y-71437428D01*
X79192380Y-70056476D02*
X79192380Y-70627904D01*
X79192380Y-70342190D02*
X78192380Y-70342190D01*
X78335238Y-70437428D01*
X78430476Y-70532666D01*
X78478095Y-70627904D01*
%TO.C,L6*%
X165187333Y-109926380D02*
X164711142Y-109926380D01*
X164711142Y-108926380D01*
X165949238Y-108926380D02*
X165758761Y-108926380D01*
X165663523Y-108974000D01*
X165615904Y-109021619D01*
X165520666Y-109164476D01*
X165473047Y-109354952D01*
X165473047Y-109735904D01*
X165520666Y-109831142D01*
X165568285Y-109878761D01*
X165663523Y-109926380D01*
X165854000Y-109926380D01*
X165949238Y-109878761D01*
X165996857Y-109831142D01*
X166044476Y-109735904D01*
X166044476Y-109497809D01*
X165996857Y-109402571D01*
X165949238Y-109354952D01*
X165854000Y-109307333D01*
X165663523Y-109307333D01*
X165568285Y-109354952D01*
X165520666Y-109402571D01*
X165473047Y-109497809D01*
X163567285Y-106634619D02*
X163614904Y-106587000D01*
X163710142Y-106539380D01*
X163948238Y-106539380D01*
X164043476Y-106587000D01*
X164091095Y-106634619D01*
X164138714Y-106729857D01*
X164138714Y-106825095D01*
X164091095Y-106967952D01*
X163519666Y-107539380D01*
X164138714Y-107539380D01*
X164148714Y-111529380D02*
X163577285Y-111529380D01*
X163863000Y-111529380D02*
X163863000Y-110529380D01*
X163767761Y-110672238D01*
X163672523Y-110767476D01*
X163577285Y-110815095D01*
%TO.C,L4*%
X165187333Y-94686380D02*
X164711142Y-94686380D01*
X164711142Y-93686380D01*
X165949238Y-94019714D02*
X165949238Y-94686380D01*
X165711142Y-93638761D02*
X165473047Y-94353047D01*
X166092095Y-94353047D01*
X163545285Y-91394619D02*
X163592904Y-91347000D01*
X163688142Y-91299380D01*
X163926238Y-91299380D01*
X164021476Y-91347000D01*
X164069095Y-91394619D01*
X164116714Y-91489857D01*
X164116714Y-91585095D01*
X164069095Y-91727952D01*
X163497666Y-92299380D01*
X164116714Y-92299380D01*
X164126714Y-96289380D02*
X163555285Y-96289380D01*
X163841000Y-96289380D02*
X163841000Y-95289380D01*
X163745761Y-95432238D01*
X163650523Y-95527476D01*
X163555285Y-95575095D01*
%TO.C,L2*%
X165695333Y-78684380D02*
X165219142Y-78684380D01*
X165219142Y-77684380D01*
X165981047Y-77779619D02*
X166028666Y-77732000D01*
X166123904Y-77684380D01*
X166362000Y-77684380D01*
X166457238Y-77732000D01*
X166504857Y-77779619D01*
X166552476Y-77874857D01*
X166552476Y-77970095D01*
X166504857Y-78112952D01*
X165933428Y-78684380D01*
X166552476Y-78684380D01*
X163799285Y-75646619D02*
X163846904Y-75599000D01*
X163942142Y-75551380D01*
X164180238Y-75551380D01*
X164275476Y-75599000D01*
X164323095Y-75646619D01*
X164370714Y-75741857D01*
X164370714Y-75837095D01*
X164323095Y-75979952D01*
X163751666Y-76551380D01*
X164370714Y-76551380D01*
X164380714Y-80541380D02*
X163809285Y-80541380D01*
X164095000Y-80541380D02*
X164095000Y-79541380D01*
X163999761Y-79684238D01*
X163904523Y-79779476D01*
X163809285Y-79827095D01*
%TO.C,L1*%
X86571333Y-57814380D02*
X86095142Y-57814380D01*
X86095142Y-56814380D01*
X87428476Y-57814380D02*
X86857047Y-57814380D01*
X87142761Y-57814380D02*
X87142761Y-56814380D01*
X87047523Y-56957238D01*
X86952285Y-57052476D01*
X86857047Y-57100095D01*
%TO.C,J11*%
X122852380Y-76501523D02*
X123566666Y-76501523D01*
X123709523Y-76549142D01*
X123804761Y-76644380D01*
X123852380Y-76787238D01*
X123852380Y-76882476D01*
X123852380Y-75501523D02*
X123852380Y-76072952D01*
X123852380Y-75787238D02*
X122852380Y-75787238D01*
X122995238Y-75882476D01*
X123090476Y-75977714D01*
X123138095Y-76072952D01*
X123852380Y-74549142D02*
X123852380Y-75120571D01*
X123852380Y-74834857D02*
X122852380Y-74834857D01*
X122995238Y-74930095D01*
X123090476Y-75025333D01*
X123138095Y-75120571D01*
%TO.C,J10*%
X77422476Y-75862380D02*
X77422476Y-76576666D01*
X77374857Y-76719523D01*
X77279619Y-76814761D01*
X77136761Y-76862380D01*
X77041523Y-76862380D01*
X78422476Y-76862380D02*
X77851047Y-76862380D01*
X78136761Y-76862380D02*
X78136761Y-75862380D01*
X78041523Y-76005238D01*
X77946285Y-76100476D01*
X77851047Y-76148095D01*
X79041523Y-75862380D02*
X79136761Y-75862380D01*
X79232000Y-75910000D01*
X79279619Y-75957619D01*
X79327238Y-76052857D01*
X79374857Y-76243333D01*
X79374857Y-76481428D01*
X79327238Y-76671904D01*
X79279619Y-76767142D01*
X79232000Y-76814761D01*
X79136761Y-76862380D01*
X79041523Y-76862380D01*
X78946285Y-76814761D01*
X78898666Y-76767142D01*
X78851047Y-76671904D01*
X78803428Y-76481428D01*
X78803428Y-76243333D01*
X78851047Y-76052857D01*
X78898666Y-75957619D01*
X78946285Y-75910000D01*
X79041523Y-75862380D01*
%TO.C,J9*%
X116252666Y-107866380D02*
X116252666Y-108580666D01*
X116205047Y-108723523D01*
X116109809Y-108818761D01*
X115966952Y-108866380D01*
X115871714Y-108866380D01*
X116776476Y-108866380D02*
X116966952Y-108866380D01*
X117062190Y-108818761D01*
X117109809Y-108771142D01*
X117205047Y-108628285D01*
X117252666Y-108437809D01*
X117252666Y-108056857D01*
X117205047Y-107961619D01*
X117157428Y-107914000D01*
X117062190Y-107866380D01*
X116871714Y-107866380D01*
X116776476Y-107914000D01*
X116728857Y-107961619D01*
X116681238Y-108056857D01*
X116681238Y-108294952D01*
X116728857Y-108390190D01*
X116776476Y-108437809D01*
X116871714Y-108485428D01*
X117062190Y-108485428D01*
X117157428Y-108437809D01*
X117205047Y-108390190D01*
X117252666Y-108294952D01*
%TO.C,J8*%
X64690666Y-100798380D02*
X64690666Y-101512666D01*
X64643047Y-101655523D01*
X64547809Y-101750761D01*
X64404952Y-101798380D01*
X64309714Y-101798380D01*
X65309714Y-101226952D02*
X65214476Y-101179333D01*
X65166857Y-101131714D01*
X65119238Y-101036476D01*
X65119238Y-100988857D01*
X65166857Y-100893619D01*
X65214476Y-100846000D01*
X65309714Y-100798380D01*
X65500190Y-100798380D01*
X65595428Y-100846000D01*
X65643047Y-100893619D01*
X65690666Y-100988857D01*
X65690666Y-101036476D01*
X65643047Y-101131714D01*
X65595428Y-101179333D01*
X65500190Y-101226952D01*
X65309714Y-101226952D01*
X65214476Y-101274571D01*
X65166857Y-101322190D01*
X65119238Y-101417428D01*
X65119238Y-101607904D01*
X65166857Y-101703142D01*
X65214476Y-101750761D01*
X65309714Y-101798380D01*
X65500190Y-101798380D01*
X65595428Y-101750761D01*
X65643047Y-101703142D01*
X65690666Y-101607904D01*
X65690666Y-101417428D01*
X65643047Y-101322190D01*
X65595428Y-101274571D01*
X65500190Y-101226952D01*
%TO.C,J7*%
X94154666Y-75608380D02*
X94154666Y-76322666D01*
X94107047Y-76465523D01*
X94011809Y-76560761D01*
X93868952Y-76608380D01*
X93773714Y-76608380D01*
X94535619Y-75608380D02*
X95202285Y-75608380D01*
X94773714Y-76608380D01*
%TO.C,J6*%
X85518666Y-75608380D02*
X85518666Y-76322666D01*
X85471047Y-76465523D01*
X85375809Y-76560761D01*
X85232952Y-76608380D01*
X85137714Y-76608380D01*
X86423428Y-75608380D02*
X86232952Y-75608380D01*
X86137714Y-75656000D01*
X86090095Y-75703619D01*
X85994857Y-75846476D01*
X85947238Y-76036952D01*
X85947238Y-76417904D01*
X85994857Y-76513142D01*
X86042476Y-76560761D01*
X86137714Y-76608380D01*
X86328190Y-76608380D01*
X86423428Y-76560761D01*
X86471047Y-76513142D01*
X86518666Y-76417904D01*
X86518666Y-76179809D01*
X86471047Y-76084571D01*
X86423428Y-76036952D01*
X86328190Y-75989333D01*
X86137714Y-75989333D01*
X86042476Y-76036952D01*
X85994857Y-76084571D01*
X85947238Y-76179809D01*
%TO.C,J5*%
X152320666Y-104564380D02*
X152320666Y-105278666D01*
X152273047Y-105421523D01*
X152177809Y-105516761D01*
X152034952Y-105564380D01*
X151939714Y-105564380D01*
X153273047Y-104564380D02*
X152796857Y-104564380D01*
X152749238Y-105040571D01*
X152796857Y-104992952D01*
X152892095Y-104945333D01*
X153130190Y-104945333D01*
X153225428Y-104992952D01*
X153273047Y-105040571D01*
X153320666Y-105135809D01*
X153320666Y-105373904D01*
X153273047Y-105469142D01*
X153225428Y-105516761D01*
X153130190Y-105564380D01*
X152892095Y-105564380D01*
X152796857Y-105516761D01*
X152749238Y-105469142D01*
%TO.C,J4*%
X152320666Y-92880380D02*
X152320666Y-93594666D01*
X152273047Y-93737523D01*
X152177809Y-93832761D01*
X152034952Y-93880380D01*
X151939714Y-93880380D01*
X153225428Y-93213714D02*
X153225428Y-93880380D01*
X152987333Y-92832761D02*
X152749238Y-93547047D01*
X153368285Y-93547047D01*
%TO.C,J3*%
X152574666Y-78446380D02*
X152574666Y-79160666D01*
X152527047Y-79303523D01*
X152431809Y-79398761D01*
X152288952Y-79446380D01*
X152193714Y-79446380D01*
X152955619Y-78446380D02*
X153574666Y-78446380D01*
X153241333Y-78827333D01*
X153384190Y-78827333D01*
X153479428Y-78874952D01*
X153527047Y-78922571D01*
X153574666Y-79017809D01*
X153574666Y-79255904D01*
X153527047Y-79351142D01*
X153479428Y-79398761D01*
X153384190Y-79446380D01*
X153098476Y-79446380D01*
X153003238Y-79398761D01*
X152955619Y-79351142D01*
%TO.C,J2*%
X144950380Y-61039333D02*
X145664666Y-61039333D01*
X145807523Y-61086952D01*
X145902761Y-61182190D01*
X145950380Y-61325047D01*
X145950380Y-61420285D01*
X145045619Y-60610761D02*
X144998000Y-60563142D01*
X144950380Y-60467904D01*
X144950380Y-60229809D01*
X144998000Y-60134571D01*
X145045619Y-60086952D01*
X145140857Y-60039333D01*
X145236095Y-60039333D01*
X145378952Y-60086952D01*
X145950380Y-60658380D01*
X145950380Y-60039333D01*
%TO.C,D9*%
X137149904Y-110870380D02*
X137149904Y-109870380D01*
X137388000Y-109870380D01*
X137530857Y-109918000D01*
X137626095Y-110013238D01*
X137673714Y-110108476D01*
X137721333Y-110298952D01*
X137721333Y-110441809D01*
X137673714Y-110632285D01*
X137626095Y-110727523D01*
X137530857Y-110822761D01*
X137388000Y-110870380D01*
X137149904Y-110870380D01*
X138197523Y-110870380D02*
X138388000Y-110870380D01*
X138483238Y-110822761D01*
X138530857Y-110775142D01*
X138626095Y-110632285D01*
X138673714Y-110441809D01*
X138673714Y-110060857D01*
X138626095Y-109965619D01*
X138578476Y-109918000D01*
X138483238Y-109870380D01*
X138292761Y-109870380D01*
X138197523Y-109918000D01*
X138149904Y-109965619D01*
X138102285Y-110060857D01*
X138102285Y-110298952D01*
X138149904Y-110394190D01*
X138197523Y-110441809D01*
X138292761Y-110489428D01*
X138483238Y-110489428D01*
X138578476Y-110441809D01*
X138626095Y-110394190D01*
X138673714Y-110298952D01*
%TO.C,D8*%
X137183904Y-104774380D02*
X137183904Y-103774380D01*
X137422000Y-103774380D01*
X137564857Y-103822000D01*
X137660095Y-103917238D01*
X137707714Y-104012476D01*
X137755333Y-104202952D01*
X137755333Y-104345809D01*
X137707714Y-104536285D01*
X137660095Y-104631523D01*
X137564857Y-104726761D01*
X137422000Y-104774380D01*
X137183904Y-104774380D01*
X138326761Y-104202952D02*
X138231523Y-104155333D01*
X138183904Y-104107714D01*
X138136285Y-104012476D01*
X138136285Y-103964857D01*
X138183904Y-103869619D01*
X138231523Y-103822000D01*
X138326761Y-103774380D01*
X138517238Y-103774380D01*
X138612476Y-103822000D01*
X138660095Y-103869619D01*
X138707714Y-103964857D01*
X138707714Y-104012476D01*
X138660095Y-104107714D01*
X138612476Y-104155333D01*
X138517238Y-104202952D01*
X138326761Y-104202952D01*
X138231523Y-104250571D01*
X138183904Y-104298190D01*
X138136285Y-104393428D01*
X138136285Y-104583904D01*
X138183904Y-104679142D01*
X138231523Y-104726761D01*
X138326761Y-104774380D01*
X138517238Y-104774380D01*
X138612476Y-104726761D01*
X138660095Y-104679142D01*
X138707714Y-104583904D01*
X138707714Y-104393428D01*
X138660095Y-104298190D01*
X138612476Y-104250571D01*
X138517238Y-104202952D01*
%TO.C,D7*%
X137183904Y-92074380D02*
X137183904Y-91074380D01*
X137422000Y-91074380D01*
X137564857Y-91122000D01*
X137660095Y-91217238D01*
X137707714Y-91312476D01*
X137755333Y-91502952D01*
X137755333Y-91645809D01*
X137707714Y-91836285D01*
X137660095Y-91931523D01*
X137564857Y-92026761D01*
X137422000Y-92074380D01*
X137183904Y-92074380D01*
X138088666Y-91074380D02*
X138755333Y-91074380D01*
X138326761Y-92074380D01*
%TO.C,D6*%
X137217904Y-98170380D02*
X137217904Y-97170380D01*
X137456000Y-97170380D01*
X137598857Y-97218000D01*
X137694095Y-97313238D01*
X137741714Y-97408476D01*
X137789333Y-97598952D01*
X137789333Y-97741809D01*
X137741714Y-97932285D01*
X137694095Y-98027523D01*
X137598857Y-98122761D01*
X137456000Y-98170380D01*
X137217904Y-98170380D01*
X138646476Y-97170380D02*
X138456000Y-97170380D01*
X138360761Y-97218000D01*
X138313142Y-97265619D01*
X138217904Y-97408476D01*
X138170285Y-97598952D01*
X138170285Y-97979904D01*
X138217904Y-98075142D01*
X138265523Y-98122761D01*
X138360761Y-98170380D01*
X138551238Y-98170380D01*
X138646476Y-98122761D01*
X138694095Y-98075142D01*
X138741714Y-97979904D01*
X138741714Y-97741809D01*
X138694095Y-97646571D01*
X138646476Y-97598952D01*
X138551238Y-97551333D01*
X138360761Y-97551333D01*
X138265523Y-97598952D01*
X138217904Y-97646571D01*
X138170285Y-97741809D01*
%TO.C,D5*%
X137183904Y-84200380D02*
X137183904Y-83200380D01*
X137422000Y-83200380D01*
X137564857Y-83248000D01*
X137660095Y-83343238D01*
X137707714Y-83438476D01*
X137755333Y-83628952D01*
X137755333Y-83771809D01*
X137707714Y-83962285D01*
X137660095Y-84057523D01*
X137564857Y-84152761D01*
X137422000Y-84200380D01*
X137183904Y-84200380D01*
X138660095Y-83200380D02*
X138183904Y-83200380D01*
X138136285Y-83676571D01*
X138183904Y-83628952D01*
X138279142Y-83581333D01*
X138517238Y-83581333D01*
X138612476Y-83628952D01*
X138660095Y-83676571D01*
X138707714Y-83771809D01*
X138707714Y-84009904D01*
X138660095Y-84105142D01*
X138612476Y-84152761D01*
X138517238Y-84200380D01*
X138279142Y-84200380D01*
X138183904Y-84152761D01*
X138136285Y-84105142D01*
%TO.C,D4*%
X137149904Y-78358380D02*
X137149904Y-77358380D01*
X137388000Y-77358380D01*
X137530857Y-77406000D01*
X137626095Y-77501238D01*
X137673714Y-77596476D01*
X137721333Y-77786952D01*
X137721333Y-77929809D01*
X137673714Y-78120285D01*
X137626095Y-78215523D01*
X137530857Y-78310761D01*
X137388000Y-78358380D01*
X137149904Y-78358380D01*
X138578476Y-77691714D02*
X138578476Y-78358380D01*
X138340380Y-77310761D02*
X138102285Y-78025047D01*
X138721333Y-78025047D01*
%TO.C,D3*%
X101290380Y-88368095D02*
X100290380Y-88368095D01*
X100290380Y-88130000D01*
X100338000Y-87987142D01*
X100433238Y-87891904D01*
X100528476Y-87844285D01*
X100718952Y-87796666D01*
X100861809Y-87796666D01*
X101052285Y-87844285D01*
X101147523Y-87891904D01*
X101242761Y-87987142D01*
X101290380Y-88130000D01*
X101290380Y-88368095D01*
X100290380Y-87463333D02*
X100290380Y-86844285D01*
X100671333Y-87177619D01*
X100671333Y-87034761D01*
X100718952Y-86939523D01*
X100766571Y-86891904D01*
X100861809Y-86844285D01*
X101099904Y-86844285D01*
X101195142Y-86891904D01*
X101242761Y-86939523D01*
X101290380Y-87034761D01*
X101290380Y-87320476D01*
X101242761Y-87415714D01*
X101195142Y-87463333D01*
%TO.C,D2*%
X76398380Y-60936095D02*
X75398380Y-60936095D01*
X75398380Y-60698000D01*
X75446000Y-60555142D01*
X75541238Y-60459904D01*
X75636476Y-60412285D01*
X75826952Y-60364666D01*
X75969809Y-60364666D01*
X76160285Y-60412285D01*
X76255523Y-60459904D01*
X76350761Y-60555142D01*
X76398380Y-60698000D01*
X76398380Y-60936095D01*
X75493619Y-59983714D02*
X75446000Y-59936095D01*
X75398380Y-59840857D01*
X75398380Y-59602761D01*
X75446000Y-59507523D01*
X75493619Y-59459904D01*
X75588857Y-59412285D01*
X75684095Y-59412285D01*
X75826952Y-59459904D01*
X76398380Y-60031333D01*
X76398380Y-59412285D01*
%TO.C,C17*%
X99375142Y-80522857D02*
X99422761Y-80570476D01*
X99470380Y-80713333D01*
X99470380Y-80808571D01*
X99422761Y-80951428D01*
X99327523Y-81046666D01*
X99232285Y-81094285D01*
X99041809Y-81141904D01*
X98898952Y-81141904D01*
X98708476Y-81094285D01*
X98613238Y-81046666D01*
X98518000Y-80951428D01*
X98470380Y-80808571D01*
X98470380Y-80713333D01*
X98518000Y-80570476D01*
X98565619Y-80522857D01*
X99470380Y-79570476D02*
X99470380Y-80141904D01*
X99470380Y-79856190D02*
X98470380Y-79856190D01*
X98613238Y-79951428D01*
X98708476Y-80046666D01*
X98756095Y-80141904D01*
X98470380Y-79237142D02*
X98470380Y-78570476D01*
X99470380Y-78999047D01*
%TO.C,C16*%
X86225142Y-62291142D02*
X86177523Y-62338761D01*
X86034666Y-62386380D01*
X85939428Y-62386380D01*
X85796571Y-62338761D01*
X85701333Y-62243523D01*
X85653714Y-62148285D01*
X85606095Y-61957809D01*
X85606095Y-61814952D01*
X85653714Y-61624476D01*
X85701333Y-61529238D01*
X85796571Y-61434000D01*
X85939428Y-61386380D01*
X86034666Y-61386380D01*
X86177523Y-61434000D01*
X86225142Y-61481619D01*
X87177523Y-62386380D02*
X86606095Y-62386380D01*
X86891809Y-62386380D02*
X86891809Y-61386380D01*
X86796571Y-61529238D01*
X86701333Y-61624476D01*
X86606095Y-61672095D01*
X88034666Y-61386380D02*
X87844190Y-61386380D01*
X87748952Y-61434000D01*
X87701333Y-61481619D01*
X87606095Y-61624476D01*
X87558476Y-61814952D01*
X87558476Y-62195904D01*
X87606095Y-62291142D01*
X87653714Y-62338761D01*
X87748952Y-62386380D01*
X87939428Y-62386380D01*
X88034666Y-62338761D01*
X88082285Y-62291142D01*
X88129904Y-62195904D01*
X88129904Y-61957809D01*
X88082285Y-61862571D01*
X88034666Y-61814952D01*
X87939428Y-61767333D01*
X87748952Y-61767333D01*
X87653714Y-61814952D01*
X87606095Y-61862571D01*
X87558476Y-61957809D01*
%TO.C,C15*%
X93461142Y-57719142D02*
X93413523Y-57766761D01*
X93270666Y-57814380D01*
X93175428Y-57814380D01*
X93032571Y-57766761D01*
X92937333Y-57671523D01*
X92889714Y-57576285D01*
X92842095Y-57385809D01*
X92842095Y-57242952D01*
X92889714Y-57052476D01*
X92937333Y-56957238D01*
X93032571Y-56862000D01*
X93175428Y-56814380D01*
X93270666Y-56814380D01*
X93413523Y-56862000D01*
X93461142Y-56909619D01*
X94413523Y-57814380D02*
X93842095Y-57814380D01*
X94127809Y-57814380D02*
X94127809Y-56814380D01*
X94032571Y-56957238D01*
X93937333Y-57052476D01*
X93842095Y-57100095D01*
X95318285Y-56814380D02*
X94842095Y-56814380D01*
X94794476Y-57290571D01*
X94842095Y-57242952D01*
X94937333Y-57195333D01*
X95175428Y-57195333D01*
X95270666Y-57242952D01*
X95318285Y-57290571D01*
X95365904Y-57385809D01*
X95365904Y-57623904D01*
X95318285Y-57719142D01*
X95270666Y-57766761D01*
X95175428Y-57814380D01*
X94937333Y-57814380D01*
X94842095Y-57766761D01*
X94794476Y-57719142D01*
%TO.C,C14*%
X99375142Y-69854857D02*
X99422761Y-69902476D01*
X99470380Y-70045333D01*
X99470380Y-70140571D01*
X99422761Y-70283428D01*
X99327523Y-70378666D01*
X99232285Y-70426285D01*
X99041809Y-70473904D01*
X98898952Y-70473904D01*
X98708476Y-70426285D01*
X98613238Y-70378666D01*
X98518000Y-70283428D01*
X98470380Y-70140571D01*
X98470380Y-70045333D01*
X98518000Y-69902476D01*
X98565619Y-69854857D01*
X99470380Y-68902476D02*
X99470380Y-69473904D01*
X99470380Y-69188190D02*
X98470380Y-69188190D01*
X98613238Y-69283428D01*
X98708476Y-69378666D01*
X98756095Y-69473904D01*
X98803714Y-68045333D02*
X99470380Y-68045333D01*
X98422761Y-68283428D02*
X99137047Y-68521523D01*
X99137047Y-67902476D01*
%TO.C,C13*%
X175125142Y-112879142D02*
X175077523Y-112926761D01*
X174934666Y-112974380D01*
X174839428Y-112974380D01*
X174696571Y-112926761D01*
X174601333Y-112831523D01*
X174553714Y-112736285D01*
X174506095Y-112545809D01*
X174506095Y-112402952D01*
X174553714Y-112212476D01*
X174601333Y-112117238D01*
X174696571Y-112022000D01*
X174839428Y-111974380D01*
X174934666Y-111974380D01*
X175077523Y-112022000D01*
X175125142Y-112069619D01*
X176077523Y-112974380D02*
X175506095Y-112974380D01*
X175791809Y-112974380D02*
X175791809Y-111974380D01*
X175696571Y-112117238D01*
X175601333Y-112212476D01*
X175506095Y-112260095D01*
X176410857Y-111974380D02*
X177029904Y-111974380D01*
X176696571Y-112355333D01*
X176839428Y-112355333D01*
X176934666Y-112402952D01*
X176982285Y-112450571D01*
X177029904Y-112545809D01*
X177029904Y-112783904D01*
X176982285Y-112879142D01*
X176934666Y-112926761D01*
X176839428Y-112974380D01*
X176553714Y-112974380D01*
X176458476Y-112926761D01*
X176410857Y-112879142D01*
%TO.C,C12*%
X174871142Y-103185142D02*
X174823523Y-103232761D01*
X174680666Y-103280380D01*
X174585428Y-103280380D01*
X174442571Y-103232761D01*
X174347333Y-103137523D01*
X174299714Y-103042285D01*
X174252095Y-102851809D01*
X174252095Y-102708952D01*
X174299714Y-102518476D01*
X174347333Y-102423238D01*
X174442571Y-102328000D01*
X174585428Y-102280380D01*
X174680666Y-102280380D01*
X174823523Y-102328000D01*
X174871142Y-102375619D01*
X175823523Y-103280380D02*
X175252095Y-103280380D01*
X175537809Y-103280380D02*
X175537809Y-102280380D01*
X175442571Y-102423238D01*
X175347333Y-102518476D01*
X175252095Y-102566095D01*
X176204476Y-102375619D02*
X176252095Y-102328000D01*
X176347333Y-102280380D01*
X176585428Y-102280380D01*
X176680666Y-102328000D01*
X176728285Y-102375619D01*
X176775904Y-102470857D01*
X176775904Y-102566095D01*
X176728285Y-102708952D01*
X176156857Y-103280380D01*
X176775904Y-103280380D01*
%TO.C,C11*%
X174741142Y-98147142D02*
X174693523Y-98194761D01*
X174550666Y-98242380D01*
X174455428Y-98242380D01*
X174312571Y-98194761D01*
X174217333Y-98099523D01*
X174169714Y-98004285D01*
X174122095Y-97813809D01*
X174122095Y-97670952D01*
X174169714Y-97480476D01*
X174217333Y-97385238D01*
X174312571Y-97290000D01*
X174455428Y-97242380D01*
X174550666Y-97242380D01*
X174693523Y-97290000D01*
X174741142Y-97337619D01*
X175693523Y-98242380D02*
X175122095Y-98242380D01*
X175407809Y-98242380D02*
X175407809Y-97242380D01*
X175312571Y-97385238D01*
X175217333Y-97480476D01*
X175122095Y-97528095D01*
X176645904Y-98242380D02*
X176074476Y-98242380D01*
X176360190Y-98242380D02*
X176360190Y-97242380D01*
X176264952Y-97385238D01*
X176169714Y-97480476D01*
X176074476Y-97528095D01*
%TO.C,C10*%
X174357142Y-87945142D02*
X174309523Y-87992761D01*
X174166666Y-88040380D01*
X174071428Y-88040380D01*
X173928571Y-87992761D01*
X173833333Y-87897523D01*
X173785714Y-87802285D01*
X173738095Y-87611809D01*
X173738095Y-87468952D01*
X173785714Y-87278476D01*
X173833333Y-87183238D01*
X173928571Y-87088000D01*
X174071428Y-87040380D01*
X174166666Y-87040380D01*
X174309523Y-87088000D01*
X174357142Y-87135619D01*
X175309523Y-88040380D02*
X174738095Y-88040380D01*
X175023809Y-88040380D02*
X175023809Y-87040380D01*
X174928571Y-87183238D01*
X174833333Y-87278476D01*
X174738095Y-87326095D01*
X175928571Y-87040380D02*
X176023809Y-87040380D01*
X176119047Y-87088000D01*
X176166666Y-87135619D01*
X176214285Y-87230857D01*
X176261904Y-87421333D01*
X176261904Y-87659428D01*
X176214285Y-87849904D01*
X176166666Y-87945142D01*
X176119047Y-87992761D01*
X176023809Y-88040380D01*
X175928571Y-88040380D01*
X175833333Y-87992761D01*
X175785714Y-87945142D01*
X175738095Y-87849904D01*
X175690476Y-87659428D01*
X175690476Y-87421333D01*
X175738095Y-87230857D01*
X175785714Y-87135619D01*
X175833333Y-87088000D01*
X175928571Y-87040380D01*
%TO.C,C9*%
X175217333Y-82145142D02*
X175169714Y-82192761D01*
X175026857Y-82240380D01*
X174931619Y-82240380D01*
X174788761Y-82192761D01*
X174693523Y-82097523D01*
X174645904Y-82002285D01*
X174598285Y-81811809D01*
X174598285Y-81668952D01*
X174645904Y-81478476D01*
X174693523Y-81383238D01*
X174788761Y-81288000D01*
X174931619Y-81240380D01*
X175026857Y-81240380D01*
X175169714Y-81288000D01*
X175217333Y-81335619D01*
X175693523Y-82240380D02*
X175884000Y-82240380D01*
X175979238Y-82192761D01*
X176026857Y-82145142D01*
X176122095Y-82002285D01*
X176169714Y-81811809D01*
X176169714Y-81430857D01*
X176122095Y-81335619D01*
X176074476Y-81288000D01*
X175979238Y-81240380D01*
X175788761Y-81240380D01*
X175693523Y-81288000D01*
X175645904Y-81335619D01*
X175598285Y-81430857D01*
X175598285Y-81668952D01*
X175645904Y-81764190D01*
X175693523Y-81811809D01*
X175788761Y-81859428D01*
X175979238Y-81859428D01*
X176074476Y-81811809D01*
X176122095Y-81764190D01*
X176169714Y-81668952D01*
%TO.C,C8*%
X175217333Y-72451142D02*
X175169714Y-72498761D01*
X175026857Y-72546380D01*
X174931619Y-72546380D01*
X174788761Y-72498761D01*
X174693523Y-72403523D01*
X174645904Y-72308285D01*
X174598285Y-72117809D01*
X174598285Y-71974952D01*
X174645904Y-71784476D01*
X174693523Y-71689238D01*
X174788761Y-71594000D01*
X174931619Y-71546380D01*
X175026857Y-71546380D01*
X175169714Y-71594000D01*
X175217333Y-71641619D01*
X175788761Y-71974952D02*
X175693523Y-71927333D01*
X175645904Y-71879714D01*
X175598285Y-71784476D01*
X175598285Y-71736857D01*
X175645904Y-71641619D01*
X175693523Y-71594000D01*
X175788761Y-71546380D01*
X175979238Y-71546380D01*
X176074476Y-71594000D01*
X176122095Y-71641619D01*
X176169714Y-71736857D01*
X176169714Y-71784476D01*
X176122095Y-71879714D01*
X176074476Y-71927333D01*
X175979238Y-71974952D01*
X175788761Y-71974952D01*
X175693523Y-72022571D01*
X175645904Y-72070190D01*
X175598285Y-72165428D01*
X175598285Y-72355904D01*
X175645904Y-72451142D01*
X175693523Y-72498761D01*
X175788761Y-72546380D01*
X175979238Y-72546380D01*
X176074476Y-72498761D01*
X176122095Y-72451142D01*
X176169714Y-72355904D01*
X176169714Y-72165428D01*
X176122095Y-72070190D01*
X176074476Y-72022571D01*
X175979238Y-71974952D01*
%TO.C,C7*%
X92771142Y-105830666D02*
X92818761Y-105878285D01*
X92866380Y-106021142D01*
X92866380Y-106116380D01*
X92818761Y-106259238D01*
X92723523Y-106354476D01*
X92628285Y-106402095D01*
X92437809Y-106449714D01*
X92294952Y-106449714D01*
X92104476Y-106402095D01*
X92009238Y-106354476D01*
X91914000Y-106259238D01*
X91866380Y-106116380D01*
X91866380Y-106021142D01*
X91914000Y-105878285D01*
X91961619Y-105830666D01*
X91866380Y-105497333D02*
X91866380Y-104830666D01*
X92866380Y-105259238D01*
%TO.C,C6*%
X92813142Y-112434666D02*
X92860761Y-112482285D01*
X92908380Y-112625142D01*
X92908380Y-112720380D01*
X92860761Y-112863238D01*
X92765523Y-112958476D01*
X92670285Y-113006095D01*
X92479809Y-113053714D01*
X92336952Y-113053714D01*
X92146476Y-113006095D01*
X92051238Y-112958476D01*
X91956000Y-112863238D01*
X91908380Y-112720380D01*
X91908380Y-112625142D01*
X91956000Y-112482285D01*
X92003619Y-112434666D01*
X91908380Y-111577523D02*
X91908380Y-111768000D01*
X91956000Y-111863238D01*
X92003619Y-111910857D01*
X92146476Y-112006095D01*
X92336952Y-112053714D01*
X92717904Y-112053714D01*
X92813142Y-112006095D01*
X92860761Y-111958476D01*
X92908380Y-111863238D01*
X92908380Y-111672761D01*
X92860761Y-111577523D01*
X92813142Y-111529904D01*
X92717904Y-111482285D01*
X92479809Y-111482285D01*
X92384571Y-111529904D01*
X92336952Y-111577523D01*
X92289333Y-111672761D01*
X92289333Y-111863238D01*
X92336952Y-111958476D01*
X92384571Y-112006095D01*
X92479809Y-112053714D01*
%TO.C,C5*%
X108291333Y-58777142D02*
X108243714Y-58824761D01*
X108100857Y-58872380D01*
X108005619Y-58872380D01*
X107862761Y-58824761D01*
X107767523Y-58729523D01*
X107719904Y-58634285D01*
X107672285Y-58443809D01*
X107672285Y-58300952D01*
X107719904Y-58110476D01*
X107767523Y-58015238D01*
X107862761Y-57920000D01*
X108005619Y-57872380D01*
X108100857Y-57872380D01*
X108243714Y-57920000D01*
X108291333Y-57967619D01*
X109196095Y-57872380D02*
X108719904Y-57872380D01*
X108672285Y-58348571D01*
X108719904Y-58300952D01*
X108815142Y-58253333D01*
X109053238Y-58253333D01*
X109148476Y-58300952D01*
X109196095Y-58348571D01*
X109243714Y-58443809D01*
X109243714Y-58681904D01*
X109196095Y-58777142D01*
X109148476Y-58824761D01*
X109053238Y-58872380D01*
X108815142Y-58872380D01*
X108719904Y-58824761D01*
X108672285Y-58777142D01*
%TO.C,C4*%
X118073333Y-59031142D02*
X118025714Y-59078761D01*
X117882857Y-59126380D01*
X117787619Y-59126380D01*
X117644761Y-59078761D01*
X117549523Y-58983523D01*
X117501904Y-58888285D01*
X117454285Y-58697809D01*
X117454285Y-58554952D01*
X117501904Y-58364476D01*
X117549523Y-58269238D01*
X117644761Y-58174000D01*
X117787619Y-58126380D01*
X117882857Y-58126380D01*
X118025714Y-58174000D01*
X118073333Y-58221619D01*
X118930476Y-58459714D02*
X118930476Y-59126380D01*
X118692380Y-58078761D02*
X118454285Y-58793047D01*
X119073333Y-58793047D01*
%TO.C,C3*%
X69699142Y-105830666D02*
X69746761Y-105878285D01*
X69794380Y-106021142D01*
X69794380Y-106116380D01*
X69746761Y-106259238D01*
X69651523Y-106354476D01*
X69556285Y-106402095D01*
X69365809Y-106449714D01*
X69222952Y-106449714D01*
X69032476Y-106402095D01*
X68937238Y-106354476D01*
X68842000Y-106259238D01*
X68794380Y-106116380D01*
X68794380Y-106021142D01*
X68842000Y-105878285D01*
X68889619Y-105830666D01*
X68794380Y-105497333D02*
X68794380Y-104878285D01*
X69175333Y-105211619D01*
X69175333Y-105068761D01*
X69222952Y-104973523D01*
X69270571Y-104925904D01*
X69365809Y-104878285D01*
X69603904Y-104878285D01*
X69699142Y-104925904D01*
X69746761Y-104973523D01*
X69794380Y-105068761D01*
X69794380Y-105354476D01*
X69746761Y-105449714D01*
X69699142Y-105497333D01*
%TO.C,C2*%
X148801333Y-64831142D02*
X148753714Y-64878761D01*
X148610857Y-64926380D01*
X148515619Y-64926380D01*
X148372761Y-64878761D01*
X148277523Y-64783523D01*
X148229904Y-64688285D01*
X148182285Y-64497809D01*
X148182285Y-64354952D01*
X148229904Y-64164476D01*
X148277523Y-64069238D01*
X148372761Y-63974000D01*
X148515619Y-63926380D01*
X148610857Y-63926380D01*
X148753714Y-63974000D01*
X148801333Y-64021619D01*
X149182285Y-64021619D02*
X149229904Y-63974000D01*
X149325142Y-63926380D01*
X149563238Y-63926380D01*
X149658476Y-63974000D01*
X149706095Y-64021619D01*
X149753714Y-64116857D01*
X149753714Y-64212095D01*
X149706095Y-64354952D01*
X149134666Y-64926380D01*
X149753714Y-64926380D01*
%TO.C,C1*%
X79351142Y-63666666D02*
X79398761Y-63714285D01*
X79446380Y-63857142D01*
X79446380Y-63952380D01*
X79398761Y-64095238D01*
X79303523Y-64190476D01*
X79208285Y-64238095D01*
X79017809Y-64285714D01*
X78874952Y-64285714D01*
X78684476Y-64238095D01*
X78589238Y-64190476D01*
X78494000Y-64095238D01*
X78446380Y-63952380D01*
X78446380Y-63857142D01*
X78494000Y-63714285D01*
X78541619Y-63666666D01*
X79446380Y-62714285D02*
X79446380Y-63285714D01*
X79446380Y-63000000D02*
X78446380Y-63000000D01*
X78589238Y-63095238D01*
X78684476Y-63190476D01*
X78732095Y-63285714D01*
%TD*%
M02*
