%TF.GenerationSoftware,KiCad,Pcbnew,(5.1.6)-1*%
%TF.CreationDate,2020-08-06T11:36:23+02:00*%
%TF.ProjectId,Sintaksa-stm32g031-BMSmodul,53696e74-616b-4736-912d-73746d333267,rev?*%
%TF.SameCoordinates,Original*%
%TF.FileFunction,Soldermask,Bot*%
%TF.FilePolarity,Negative*%
%FSLAX46Y46*%
G04 Gerber Fmt 4.6, Leading zero omitted, Abs format (unit mm)*
G04 Created by KiCad (PCBNEW (5.1.6)-1) date 2020-08-06 11:36:23*
%MOMM*%
%LPD*%
G01*
G04 APERTURE LIST*
%ADD10C,3.200000*%
%ADD11R,1.700000X1.700000*%
%ADD12C,1.400000*%
%ADD13O,1.700000X1.700000*%
%ADD14C,1.500000*%
%ADD15O,1.600000X1.600000*%
%ADD16C,1.600000*%
%ADD17C,2.000000*%
%ADD18O,2.400000X2.400000*%
%ADD19C,2.400000*%
G04 APERTURE END LIST*
D10*
%TO.C,H4*%
X187960000Y-116840000D03*
%TD*%
%TO.C,H3*%
X60960000Y-116840000D03*
%TD*%
%TO.C,H2*%
X60960000Y-66040000D03*
%TD*%
%TO.C,H1*%
X187960000Y-55880000D03*
%TD*%
D11*
%TO.C,J1*%
X65300000Y-60400000D03*
X65300000Y-55320000D03*
%TD*%
D12*
%TO.C,U8*%
X186690000Y-111506000D03*
X184150000Y-110236000D03*
X186690000Y-108966000D03*
X184150000Y-107696000D03*
%TD*%
%TO.C,U6*%
X186690000Y-81280000D03*
X184150000Y-80010000D03*
X186690000Y-78740000D03*
X184150000Y-77470000D03*
%TD*%
%TO.C,U7*%
X186690000Y-96774000D03*
X184150000Y-95504000D03*
X186690000Y-94234000D03*
X184150000Y-92964000D03*
%TD*%
D13*
%TO.C,J12*%
X128270000Y-89662000D03*
D11*
X125730000Y-89662000D03*
%TD*%
D14*
%TO.C,Y1*%
X115624000Y-67818000D03*
X110744000Y-67818000D03*
%TD*%
D15*
%TO.C,TH2*%
X85852000Y-92710000D03*
D16*
X85852000Y-90170000D03*
%TD*%
D15*
%TO.C,TH1*%
X78232000Y-92710000D03*
D16*
X78232000Y-90170000D03*
%TD*%
D17*
%TO.C,SW1*%
X140358000Y-60706000D03*
X140358000Y-65206000D03*
X133858000Y-60706000D03*
X133858000Y-65206000D03*
%TD*%
D18*
%TO.C,R5*%
X67818000Y-66548000D03*
D19*
X67818000Y-97028000D03*
%TD*%
D13*
%TO.C,J11*%
X128270000Y-75692000D03*
D11*
X125730000Y-75692000D03*
%TD*%
D13*
%TO.C,J10*%
X78232000Y-81280000D03*
D11*
X78232000Y-78740000D03*
%TD*%
D13*
%TO.C,J9*%
X116586000Y-113284000D03*
D11*
X116586000Y-110744000D03*
%TD*%
D13*
%TO.C,J8*%
X65024000Y-104140000D03*
D11*
X65024000Y-106680000D03*
%TD*%
D13*
%TO.C,J7*%
X94488000Y-81026000D03*
D11*
X94488000Y-78486000D03*
%TD*%
D13*
%TO.C,J6*%
X85852000Y-81026000D03*
D11*
X85852000Y-78486000D03*
%TD*%
D13*
%TO.C,J5*%
X152654000Y-109982000D03*
D11*
X152654000Y-107442000D03*
%TD*%
D13*
%TO.C,J4*%
X152654000Y-98298000D03*
D11*
X152654000Y-95758000D03*
%TD*%
D13*
%TO.C,J3*%
X152908000Y-81534000D03*
D11*
X152908000Y-84074000D03*
%TD*%
D13*
%TO.C,J2*%
X157988000Y-60706000D03*
X155448000Y-60706000D03*
X152908000Y-60706000D03*
X150368000Y-60706000D03*
D11*
X147828000Y-60706000D03*
%TD*%
M02*
