M48
; DRILL file {KiCad (5.1.6)-1} date 08/06/20 11:36:17
; FORMAT={-:-/ absolute / inch / decimal}
; #@! TF.CreationDate,2020-08-06T11:36:17+02:00
; #@! TF.GenerationSoftware,Kicad,Pcbnew,(5.1.6)-1
; #@! TF.FileFunction,Plated,1,2,PTH
FMAT,2
INCH
T1C0.0157
T2C0.0315
T3C0.0354
T4C0.0394
T5C0.0433
T6C0.0472
%
G90
G05
T1
X3.4094Y-4.565
X3.54Y-2.84
X3.71Y-3.75
X3.84Y-3.52
X3.84Y-3.83
X3.89Y-3.4
X3.97Y-2.22
X3.97Y-4.45
X4.06Y-3.15
X4.06Y-3.53
X4.14Y-3.15
X4.1417Y-3.2972
X4.1417Y-3.3701
X4.1748Y-4.1583
X4.1756Y-4.4492
X4.23Y-3.15
X4.37Y-3.78
X4.38Y-3.08
X4.42Y-3.83
X4.45Y-3.08
X4.48Y-3.83
X4.53Y-3.78
X4.62Y-3.08
X4.67Y-3.78
X4.74Y-3.37
X4.74Y-4.2285
X4.74Y-4.5
X4.75Y-3.56
X4.83Y-3.15
X4.83Y-3.31
X4.83Y-4.3
X4.8583Y-4.0728
X4.86Y-4.03
X4.94Y-3.64
X5.0394Y-4.2244
X5.0925Y-4.065
X5.14Y-2.49
X5.15Y-4.44
X5.24Y-3.14
X5.2756Y-3.9685
X5.3858Y-4.3307
X5.54Y-3.19
X5.54Y-3.4
X5.54Y-3.71
X5.54Y-3.94
X5.54Y-4.2
X5.54Y-4.45
T2
X3.08Y-3.55
X3.08Y-3.65
X4.36Y-2.67
X4.5521Y-2.67
X3.38Y-3.55
X3.38Y-3.65
T3
X7.25Y-3.05
X7.25Y-3.15
X7.35Y-3.1
X7.35Y-3.2
X7.25Y-4.24
X7.25Y-4.34
X7.35Y-4.29
X7.35Y-4.39
X7.25Y-3.66
X7.25Y-3.76
X7.35Y-3.71
X7.35Y-3.81
T4
X4.95Y-2.98
X5.05Y-2.98
X6.02Y-3.21
X6.02Y-3.31
X4.95Y-3.53
X5.05Y-3.53
X2.56Y-4.1
X2.56Y-4.2
X6.01Y-3.77
X6.01Y-3.87
X6.01Y-4.23
X6.01Y-4.33
X4.59Y-4.36
X4.59Y-4.46
X5.82Y-2.39
X5.92Y-2.39
X6.02Y-2.39
X6.12Y-2.39
X6.22Y-2.39
X3.38Y-3.09
X3.38Y-3.19
X3.08Y-3.1
X3.08Y-3.2
X3.72Y-3.09
X3.72Y-3.19
T5
X5.27Y-2.39
X5.27Y-2.5672
X5.5259Y-2.39
X5.5259Y-2.5672
X2.5709Y-2.178
X2.5709Y-2.378
T6
X2.67Y-2.62
X2.67Y-3.82
T0
M30
